G04 #@! TF.GenerationSoftware,KiCad,Pcbnew,5.1.5+dfsg1-2build2*
G04 #@! TF.CreationDate,2020-12-13T15:53:48+04:00*
G04 #@! TF.ProjectId,raspberryButton1,72617370-6265-4727-9279-427574746f6e,rev?*
G04 #@! TF.SameCoordinates,Original*
G04 #@! TF.FileFunction,Paste,Top*
G04 #@! TF.FilePolarity,Positive*
%FSLAX46Y46*%
G04 Gerber Fmt 4.6, Leading zero omitted, Abs format (unit mm)*
G04 Created by KiCad (PCBNEW 5.1.5+dfsg1-2build2) date 2020-12-13 15:53:48*
%MOMM*%
%LPD*%
G04 APERTURE LIST*
%ADD10C,0.100000*%
G04 APERTURE END LIST*
D10*
G36*
X118598212Y-91458503D02*
G01*
X118605930Y-91459648D01*
X118613498Y-91461543D01*
X118620843Y-91464172D01*
X118627896Y-91467507D01*
X118634588Y-91471518D01*
X118640854Y-91476166D01*
X118646635Y-91481405D01*
X118651874Y-91487186D01*
X118656522Y-91493452D01*
X118660533Y-91500144D01*
X118663868Y-91507197D01*
X118666497Y-91514542D01*
X118668392Y-91522110D01*
X118669537Y-91529828D01*
X118669920Y-91537620D01*
X118669920Y-91738620D01*
X118669537Y-91746412D01*
X118668392Y-91754130D01*
X118666497Y-91761698D01*
X118663868Y-91769043D01*
X118660533Y-91776096D01*
X118656522Y-91782788D01*
X118651874Y-91789054D01*
X118646635Y-91794835D01*
X118640854Y-91800074D01*
X118634588Y-91804722D01*
X118627896Y-91808733D01*
X118620843Y-91812068D01*
X118613498Y-91814697D01*
X118605930Y-91816592D01*
X118598212Y-91817737D01*
X118590420Y-91818120D01*
X118431420Y-91818120D01*
X118423628Y-91817737D01*
X118415910Y-91816592D01*
X118408342Y-91814697D01*
X118400997Y-91812068D01*
X118393944Y-91808733D01*
X118387252Y-91804722D01*
X118380986Y-91800074D01*
X118375205Y-91794835D01*
X118369966Y-91789054D01*
X118365318Y-91782788D01*
X118361307Y-91776096D01*
X118357972Y-91769043D01*
X118355343Y-91761698D01*
X118353448Y-91754130D01*
X118352303Y-91746412D01*
X118351920Y-91738620D01*
X118351920Y-91537620D01*
X118352303Y-91529828D01*
X118353448Y-91522110D01*
X118355343Y-91514542D01*
X118357972Y-91507197D01*
X118361307Y-91500144D01*
X118365318Y-91493452D01*
X118369966Y-91487186D01*
X118375205Y-91481405D01*
X118380986Y-91476166D01*
X118387252Y-91471518D01*
X118393944Y-91467507D01*
X118400997Y-91464172D01*
X118408342Y-91461543D01*
X118415910Y-91459648D01*
X118423628Y-91458503D01*
X118431420Y-91458120D01*
X118590420Y-91458120D01*
X118598212Y-91458503D01*
G37*
G36*
X117908212Y-91458503D02*
G01*
X117915930Y-91459648D01*
X117923498Y-91461543D01*
X117930843Y-91464172D01*
X117937896Y-91467507D01*
X117944588Y-91471518D01*
X117950854Y-91476166D01*
X117956635Y-91481405D01*
X117961874Y-91487186D01*
X117966522Y-91493452D01*
X117970533Y-91500144D01*
X117973868Y-91507197D01*
X117976497Y-91514542D01*
X117978392Y-91522110D01*
X117979537Y-91529828D01*
X117979920Y-91537620D01*
X117979920Y-91738620D01*
X117979537Y-91746412D01*
X117978392Y-91754130D01*
X117976497Y-91761698D01*
X117973868Y-91769043D01*
X117970533Y-91776096D01*
X117966522Y-91782788D01*
X117961874Y-91789054D01*
X117956635Y-91794835D01*
X117950854Y-91800074D01*
X117944588Y-91804722D01*
X117937896Y-91808733D01*
X117930843Y-91812068D01*
X117923498Y-91814697D01*
X117915930Y-91816592D01*
X117908212Y-91817737D01*
X117900420Y-91818120D01*
X117741420Y-91818120D01*
X117733628Y-91817737D01*
X117725910Y-91816592D01*
X117718342Y-91814697D01*
X117710997Y-91812068D01*
X117703944Y-91808733D01*
X117697252Y-91804722D01*
X117690986Y-91800074D01*
X117685205Y-91794835D01*
X117679966Y-91789054D01*
X117675318Y-91782788D01*
X117671307Y-91776096D01*
X117667972Y-91769043D01*
X117665343Y-91761698D01*
X117663448Y-91754130D01*
X117662303Y-91746412D01*
X117661920Y-91738620D01*
X117661920Y-91537620D01*
X117662303Y-91529828D01*
X117663448Y-91522110D01*
X117665343Y-91514542D01*
X117667972Y-91507197D01*
X117671307Y-91500144D01*
X117675318Y-91493452D01*
X117679966Y-91487186D01*
X117685205Y-91481405D01*
X117690986Y-91476166D01*
X117697252Y-91471518D01*
X117703944Y-91467507D01*
X117710997Y-91464172D01*
X117718342Y-91461543D01*
X117725910Y-91459648D01*
X117733628Y-91458503D01*
X117741420Y-91458120D01*
X117900420Y-91458120D01*
X117908212Y-91458503D01*
G37*
G36*
X118618492Y-94780823D02*
G01*
X118626210Y-94781968D01*
X118633778Y-94783863D01*
X118641123Y-94786492D01*
X118648176Y-94789827D01*
X118654868Y-94793838D01*
X118661134Y-94798486D01*
X118666915Y-94803725D01*
X118672154Y-94809506D01*
X118676802Y-94815772D01*
X118680813Y-94822464D01*
X118684148Y-94829517D01*
X118686777Y-94836862D01*
X118688672Y-94844430D01*
X118689817Y-94852148D01*
X118690200Y-94859940D01*
X118690200Y-95060940D01*
X118689817Y-95068732D01*
X118688672Y-95076450D01*
X118686777Y-95084018D01*
X118684148Y-95091363D01*
X118680813Y-95098416D01*
X118676802Y-95105108D01*
X118672154Y-95111374D01*
X118666915Y-95117155D01*
X118661134Y-95122394D01*
X118654868Y-95127042D01*
X118648176Y-95131053D01*
X118641123Y-95134388D01*
X118633778Y-95137017D01*
X118626210Y-95138912D01*
X118618492Y-95140057D01*
X118610700Y-95140440D01*
X118451700Y-95140440D01*
X118443908Y-95140057D01*
X118436190Y-95138912D01*
X118428622Y-95137017D01*
X118421277Y-95134388D01*
X118414224Y-95131053D01*
X118407532Y-95127042D01*
X118401266Y-95122394D01*
X118395485Y-95117155D01*
X118390246Y-95111374D01*
X118385598Y-95105108D01*
X118381587Y-95098416D01*
X118378252Y-95091363D01*
X118375623Y-95084018D01*
X118373728Y-95076450D01*
X118372583Y-95068732D01*
X118372200Y-95060940D01*
X118372200Y-94859940D01*
X118372583Y-94852148D01*
X118373728Y-94844430D01*
X118375623Y-94836862D01*
X118378252Y-94829517D01*
X118381587Y-94822464D01*
X118385598Y-94815772D01*
X118390246Y-94809506D01*
X118395485Y-94803725D01*
X118401266Y-94798486D01*
X118407532Y-94793838D01*
X118414224Y-94789827D01*
X118421277Y-94786492D01*
X118428622Y-94783863D01*
X118436190Y-94781968D01*
X118443908Y-94780823D01*
X118451700Y-94780440D01*
X118610700Y-94780440D01*
X118618492Y-94780823D01*
G37*
G36*
X117928492Y-94780823D02*
G01*
X117936210Y-94781968D01*
X117943778Y-94783863D01*
X117951123Y-94786492D01*
X117958176Y-94789827D01*
X117964868Y-94793838D01*
X117971134Y-94798486D01*
X117976915Y-94803725D01*
X117982154Y-94809506D01*
X117986802Y-94815772D01*
X117990813Y-94822464D01*
X117994148Y-94829517D01*
X117996777Y-94836862D01*
X117998672Y-94844430D01*
X117999817Y-94852148D01*
X118000200Y-94859940D01*
X118000200Y-95060940D01*
X117999817Y-95068732D01*
X117998672Y-95076450D01*
X117996777Y-95084018D01*
X117994148Y-95091363D01*
X117990813Y-95098416D01*
X117986802Y-95105108D01*
X117982154Y-95111374D01*
X117976915Y-95117155D01*
X117971134Y-95122394D01*
X117964868Y-95127042D01*
X117958176Y-95131053D01*
X117951123Y-95134388D01*
X117943778Y-95137017D01*
X117936210Y-95138912D01*
X117928492Y-95140057D01*
X117920700Y-95140440D01*
X117761700Y-95140440D01*
X117753908Y-95140057D01*
X117746190Y-95138912D01*
X117738622Y-95137017D01*
X117731277Y-95134388D01*
X117724224Y-95131053D01*
X117717532Y-95127042D01*
X117711266Y-95122394D01*
X117705485Y-95117155D01*
X117700246Y-95111374D01*
X117695598Y-95105108D01*
X117691587Y-95098416D01*
X117688252Y-95091363D01*
X117685623Y-95084018D01*
X117683728Y-95076450D01*
X117682583Y-95068732D01*
X117682200Y-95060940D01*
X117682200Y-94859940D01*
X117682583Y-94852148D01*
X117683728Y-94844430D01*
X117685623Y-94836862D01*
X117688252Y-94829517D01*
X117691587Y-94822464D01*
X117695598Y-94815772D01*
X117700246Y-94809506D01*
X117705485Y-94803725D01*
X117711266Y-94798486D01*
X117717532Y-94793838D01*
X117724224Y-94789827D01*
X117731277Y-94786492D01*
X117738622Y-94783863D01*
X117746190Y-94781968D01*
X117753908Y-94780823D01*
X117761700Y-94780440D01*
X117920700Y-94780440D01*
X117928492Y-94780823D01*
G37*
G36*
X139712292Y-90874383D02*
G01*
X139720010Y-90875528D01*
X139727578Y-90877423D01*
X139734923Y-90880052D01*
X139741976Y-90883387D01*
X139748668Y-90887398D01*
X139754934Y-90892046D01*
X139760715Y-90897285D01*
X139765954Y-90903066D01*
X139770602Y-90909332D01*
X139774613Y-90916024D01*
X139777948Y-90923077D01*
X139780577Y-90930422D01*
X139782472Y-90937990D01*
X139783617Y-90945708D01*
X139784000Y-90953500D01*
X139784000Y-91154500D01*
X139783617Y-91162292D01*
X139782472Y-91170010D01*
X139780577Y-91177578D01*
X139777948Y-91184923D01*
X139774613Y-91191976D01*
X139770602Y-91198668D01*
X139765954Y-91204934D01*
X139760715Y-91210715D01*
X139754934Y-91215954D01*
X139748668Y-91220602D01*
X139741976Y-91224613D01*
X139734923Y-91227948D01*
X139727578Y-91230577D01*
X139720010Y-91232472D01*
X139712292Y-91233617D01*
X139704500Y-91234000D01*
X139545500Y-91234000D01*
X139537708Y-91233617D01*
X139529990Y-91232472D01*
X139522422Y-91230577D01*
X139515077Y-91227948D01*
X139508024Y-91224613D01*
X139501332Y-91220602D01*
X139495066Y-91215954D01*
X139489285Y-91210715D01*
X139484046Y-91204934D01*
X139479398Y-91198668D01*
X139475387Y-91191976D01*
X139472052Y-91184923D01*
X139469423Y-91177578D01*
X139467528Y-91170010D01*
X139466383Y-91162292D01*
X139466000Y-91154500D01*
X139466000Y-90953500D01*
X139466383Y-90945708D01*
X139467528Y-90937990D01*
X139469423Y-90930422D01*
X139472052Y-90923077D01*
X139475387Y-90916024D01*
X139479398Y-90909332D01*
X139484046Y-90903066D01*
X139489285Y-90897285D01*
X139495066Y-90892046D01*
X139501332Y-90887398D01*
X139508024Y-90883387D01*
X139515077Y-90880052D01*
X139522422Y-90877423D01*
X139529990Y-90875528D01*
X139537708Y-90874383D01*
X139545500Y-90874000D01*
X139704500Y-90874000D01*
X139712292Y-90874383D01*
G37*
G36*
X139022292Y-90874383D02*
G01*
X139030010Y-90875528D01*
X139037578Y-90877423D01*
X139044923Y-90880052D01*
X139051976Y-90883387D01*
X139058668Y-90887398D01*
X139064934Y-90892046D01*
X139070715Y-90897285D01*
X139075954Y-90903066D01*
X139080602Y-90909332D01*
X139084613Y-90916024D01*
X139087948Y-90923077D01*
X139090577Y-90930422D01*
X139092472Y-90937990D01*
X139093617Y-90945708D01*
X139094000Y-90953500D01*
X139094000Y-91154500D01*
X139093617Y-91162292D01*
X139092472Y-91170010D01*
X139090577Y-91177578D01*
X139087948Y-91184923D01*
X139084613Y-91191976D01*
X139080602Y-91198668D01*
X139075954Y-91204934D01*
X139070715Y-91210715D01*
X139064934Y-91215954D01*
X139058668Y-91220602D01*
X139051976Y-91224613D01*
X139044923Y-91227948D01*
X139037578Y-91230577D01*
X139030010Y-91232472D01*
X139022292Y-91233617D01*
X139014500Y-91234000D01*
X138855500Y-91234000D01*
X138847708Y-91233617D01*
X138839990Y-91232472D01*
X138832422Y-91230577D01*
X138825077Y-91227948D01*
X138818024Y-91224613D01*
X138811332Y-91220602D01*
X138805066Y-91215954D01*
X138799285Y-91210715D01*
X138794046Y-91204934D01*
X138789398Y-91198668D01*
X138785387Y-91191976D01*
X138782052Y-91184923D01*
X138779423Y-91177578D01*
X138777528Y-91170010D01*
X138776383Y-91162292D01*
X138776000Y-91154500D01*
X138776000Y-90953500D01*
X138776383Y-90945708D01*
X138777528Y-90937990D01*
X138779423Y-90930422D01*
X138782052Y-90923077D01*
X138785387Y-90916024D01*
X138789398Y-90909332D01*
X138794046Y-90903066D01*
X138799285Y-90897285D01*
X138805066Y-90892046D01*
X138811332Y-90887398D01*
X138818024Y-90883387D01*
X138825077Y-90880052D01*
X138832422Y-90877423D01*
X138839990Y-90875528D01*
X138847708Y-90874383D01*
X138855500Y-90874000D01*
X139014500Y-90874000D01*
X139022292Y-90874383D01*
G37*
G36*
X139142292Y-94874383D02*
G01*
X139150010Y-94875528D01*
X139157578Y-94877423D01*
X139164923Y-94880052D01*
X139171976Y-94883387D01*
X139178668Y-94887398D01*
X139184934Y-94892046D01*
X139190715Y-94897285D01*
X139195954Y-94903066D01*
X139200602Y-94909332D01*
X139204613Y-94916024D01*
X139207948Y-94923077D01*
X139210577Y-94930422D01*
X139212472Y-94937990D01*
X139213617Y-94945708D01*
X139214000Y-94953500D01*
X139214000Y-95154500D01*
X139213617Y-95162292D01*
X139212472Y-95170010D01*
X139210577Y-95177578D01*
X139207948Y-95184923D01*
X139204613Y-95191976D01*
X139200602Y-95198668D01*
X139195954Y-95204934D01*
X139190715Y-95210715D01*
X139184934Y-95215954D01*
X139178668Y-95220602D01*
X139171976Y-95224613D01*
X139164923Y-95227948D01*
X139157578Y-95230577D01*
X139150010Y-95232472D01*
X139142292Y-95233617D01*
X139134500Y-95234000D01*
X138975500Y-95234000D01*
X138967708Y-95233617D01*
X138959990Y-95232472D01*
X138952422Y-95230577D01*
X138945077Y-95227948D01*
X138938024Y-95224613D01*
X138931332Y-95220602D01*
X138925066Y-95215954D01*
X138919285Y-95210715D01*
X138914046Y-95204934D01*
X138909398Y-95198668D01*
X138905387Y-95191976D01*
X138902052Y-95184923D01*
X138899423Y-95177578D01*
X138897528Y-95170010D01*
X138896383Y-95162292D01*
X138896000Y-95154500D01*
X138896000Y-94953500D01*
X138896383Y-94945708D01*
X138897528Y-94937990D01*
X138899423Y-94930422D01*
X138902052Y-94923077D01*
X138905387Y-94916024D01*
X138909398Y-94909332D01*
X138914046Y-94903066D01*
X138919285Y-94897285D01*
X138925066Y-94892046D01*
X138931332Y-94887398D01*
X138938024Y-94883387D01*
X138945077Y-94880052D01*
X138952422Y-94877423D01*
X138959990Y-94875528D01*
X138967708Y-94874383D01*
X138975500Y-94874000D01*
X139134500Y-94874000D01*
X139142292Y-94874383D01*
G37*
G36*
X139832292Y-94874383D02*
G01*
X139840010Y-94875528D01*
X139847578Y-94877423D01*
X139854923Y-94880052D01*
X139861976Y-94883387D01*
X139868668Y-94887398D01*
X139874934Y-94892046D01*
X139880715Y-94897285D01*
X139885954Y-94903066D01*
X139890602Y-94909332D01*
X139894613Y-94916024D01*
X139897948Y-94923077D01*
X139900577Y-94930422D01*
X139902472Y-94937990D01*
X139903617Y-94945708D01*
X139904000Y-94953500D01*
X139904000Y-95154500D01*
X139903617Y-95162292D01*
X139902472Y-95170010D01*
X139900577Y-95177578D01*
X139897948Y-95184923D01*
X139894613Y-95191976D01*
X139890602Y-95198668D01*
X139885954Y-95204934D01*
X139880715Y-95210715D01*
X139874934Y-95215954D01*
X139868668Y-95220602D01*
X139861976Y-95224613D01*
X139854923Y-95227948D01*
X139847578Y-95230577D01*
X139840010Y-95232472D01*
X139832292Y-95233617D01*
X139824500Y-95234000D01*
X139665500Y-95234000D01*
X139657708Y-95233617D01*
X139649990Y-95232472D01*
X139642422Y-95230577D01*
X139635077Y-95227948D01*
X139628024Y-95224613D01*
X139621332Y-95220602D01*
X139615066Y-95215954D01*
X139609285Y-95210715D01*
X139604046Y-95204934D01*
X139599398Y-95198668D01*
X139595387Y-95191976D01*
X139592052Y-95184923D01*
X139589423Y-95177578D01*
X139587528Y-95170010D01*
X139586383Y-95162292D01*
X139586000Y-95154500D01*
X139586000Y-94953500D01*
X139586383Y-94945708D01*
X139587528Y-94937990D01*
X139589423Y-94930422D01*
X139592052Y-94923077D01*
X139595387Y-94916024D01*
X139599398Y-94909332D01*
X139604046Y-94903066D01*
X139609285Y-94897285D01*
X139615066Y-94892046D01*
X139621332Y-94887398D01*
X139628024Y-94883387D01*
X139635077Y-94880052D01*
X139642422Y-94877423D01*
X139649990Y-94875528D01*
X139657708Y-94874383D01*
X139665500Y-94874000D01*
X139824500Y-94874000D01*
X139832292Y-94874383D01*
G37*
G36*
X162542292Y-91020383D02*
G01*
X162550010Y-91021528D01*
X162557578Y-91023423D01*
X162564923Y-91026052D01*
X162571976Y-91029387D01*
X162578668Y-91033398D01*
X162584934Y-91038046D01*
X162590715Y-91043285D01*
X162595954Y-91049066D01*
X162600602Y-91055332D01*
X162604613Y-91062024D01*
X162607948Y-91069077D01*
X162610577Y-91076422D01*
X162612472Y-91083990D01*
X162613617Y-91091708D01*
X162614000Y-91099500D01*
X162614000Y-91300500D01*
X162613617Y-91308292D01*
X162612472Y-91316010D01*
X162610577Y-91323578D01*
X162607948Y-91330923D01*
X162604613Y-91337976D01*
X162600602Y-91344668D01*
X162595954Y-91350934D01*
X162590715Y-91356715D01*
X162584934Y-91361954D01*
X162578668Y-91366602D01*
X162571976Y-91370613D01*
X162564923Y-91373948D01*
X162557578Y-91376577D01*
X162550010Y-91378472D01*
X162542292Y-91379617D01*
X162534500Y-91380000D01*
X162375500Y-91380000D01*
X162367708Y-91379617D01*
X162359990Y-91378472D01*
X162352422Y-91376577D01*
X162345077Y-91373948D01*
X162338024Y-91370613D01*
X162331332Y-91366602D01*
X162325066Y-91361954D01*
X162319285Y-91356715D01*
X162314046Y-91350934D01*
X162309398Y-91344668D01*
X162305387Y-91337976D01*
X162302052Y-91330923D01*
X162299423Y-91323578D01*
X162297528Y-91316010D01*
X162296383Y-91308292D01*
X162296000Y-91300500D01*
X162296000Y-91099500D01*
X162296383Y-91091708D01*
X162297528Y-91083990D01*
X162299423Y-91076422D01*
X162302052Y-91069077D01*
X162305387Y-91062024D01*
X162309398Y-91055332D01*
X162314046Y-91049066D01*
X162319285Y-91043285D01*
X162325066Y-91038046D01*
X162331332Y-91033398D01*
X162338024Y-91029387D01*
X162345077Y-91026052D01*
X162352422Y-91023423D01*
X162359990Y-91021528D01*
X162367708Y-91020383D01*
X162375500Y-91020000D01*
X162534500Y-91020000D01*
X162542292Y-91020383D01*
G37*
G36*
X163232292Y-91020383D02*
G01*
X163240010Y-91021528D01*
X163247578Y-91023423D01*
X163254923Y-91026052D01*
X163261976Y-91029387D01*
X163268668Y-91033398D01*
X163274934Y-91038046D01*
X163280715Y-91043285D01*
X163285954Y-91049066D01*
X163290602Y-91055332D01*
X163294613Y-91062024D01*
X163297948Y-91069077D01*
X163300577Y-91076422D01*
X163302472Y-91083990D01*
X163303617Y-91091708D01*
X163304000Y-91099500D01*
X163304000Y-91300500D01*
X163303617Y-91308292D01*
X163302472Y-91316010D01*
X163300577Y-91323578D01*
X163297948Y-91330923D01*
X163294613Y-91337976D01*
X163290602Y-91344668D01*
X163285954Y-91350934D01*
X163280715Y-91356715D01*
X163274934Y-91361954D01*
X163268668Y-91366602D01*
X163261976Y-91370613D01*
X163254923Y-91373948D01*
X163247578Y-91376577D01*
X163240010Y-91378472D01*
X163232292Y-91379617D01*
X163224500Y-91380000D01*
X163065500Y-91380000D01*
X163057708Y-91379617D01*
X163049990Y-91378472D01*
X163042422Y-91376577D01*
X163035077Y-91373948D01*
X163028024Y-91370613D01*
X163021332Y-91366602D01*
X163015066Y-91361954D01*
X163009285Y-91356715D01*
X163004046Y-91350934D01*
X162999398Y-91344668D01*
X162995387Y-91337976D01*
X162992052Y-91330923D01*
X162989423Y-91323578D01*
X162987528Y-91316010D01*
X162986383Y-91308292D01*
X162986000Y-91300500D01*
X162986000Y-91099500D01*
X162986383Y-91091708D01*
X162987528Y-91083990D01*
X162989423Y-91076422D01*
X162992052Y-91069077D01*
X162995387Y-91062024D01*
X162999398Y-91055332D01*
X163004046Y-91049066D01*
X163009285Y-91043285D01*
X163015066Y-91038046D01*
X163021332Y-91033398D01*
X163028024Y-91029387D01*
X163035077Y-91026052D01*
X163042422Y-91023423D01*
X163049990Y-91021528D01*
X163057708Y-91020383D01*
X163065500Y-91020000D01*
X163224500Y-91020000D01*
X163232292Y-91020383D01*
G37*
G36*
X163232292Y-94820383D02*
G01*
X163240010Y-94821528D01*
X163247578Y-94823423D01*
X163254923Y-94826052D01*
X163261976Y-94829387D01*
X163268668Y-94833398D01*
X163274934Y-94838046D01*
X163280715Y-94843285D01*
X163285954Y-94849066D01*
X163290602Y-94855332D01*
X163294613Y-94862024D01*
X163297948Y-94869077D01*
X163300577Y-94876422D01*
X163302472Y-94883990D01*
X163303617Y-94891708D01*
X163304000Y-94899500D01*
X163304000Y-95100500D01*
X163303617Y-95108292D01*
X163302472Y-95116010D01*
X163300577Y-95123578D01*
X163297948Y-95130923D01*
X163294613Y-95137976D01*
X163290602Y-95144668D01*
X163285954Y-95150934D01*
X163280715Y-95156715D01*
X163274934Y-95161954D01*
X163268668Y-95166602D01*
X163261976Y-95170613D01*
X163254923Y-95173948D01*
X163247578Y-95176577D01*
X163240010Y-95178472D01*
X163232292Y-95179617D01*
X163224500Y-95180000D01*
X163065500Y-95180000D01*
X163057708Y-95179617D01*
X163049990Y-95178472D01*
X163042422Y-95176577D01*
X163035077Y-95173948D01*
X163028024Y-95170613D01*
X163021332Y-95166602D01*
X163015066Y-95161954D01*
X163009285Y-95156715D01*
X163004046Y-95150934D01*
X162999398Y-95144668D01*
X162995387Y-95137976D01*
X162992052Y-95130923D01*
X162989423Y-95123578D01*
X162987528Y-95116010D01*
X162986383Y-95108292D01*
X162986000Y-95100500D01*
X162986000Y-94899500D01*
X162986383Y-94891708D01*
X162987528Y-94883990D01*
X162989423Y-94876422D01*
X162992052Y-94869077D01*
X162995387Y-94862024D01*
X162999398Y-94855332D01*
X163004046Y-94849066D01*
X163009285Y-94843285D01*
X163015066Y-94838046D01*
X163021332Y-94833398D01*
X163028024Y-94829387D01*
X163035077Y-94826052D01*
X163042422Y-94823423D01*
X163049990Y-94821528D01*
X163057708Y-94820383D01*
X163065500Y-94820000D01*
X163224500Y-94820000D01*
X163232292Y-94820383D01*
G37*
G36*
X162542292Y-94820383D02*
G01*
X162550010Y-94821528D01*
X162557578Y-94823423D01*
X162564923Y-94826052D01*
X162571976Y-94829387D01*
X162578668Y-94833398D01*
X162584934Y-94838046D01*
X162590715Y-94843285D01*
X162595954Y-94849066D01*
X162600602Y-94855332D01*
X162604613Y-94862024D01*
X162607948Y-94869077D01*
X162610577Y-94876422D01*
X162612472Y-94883990D01*
X162613617Y-94891708D01*
X162614000Y-94899500D01*
X162614000Y-95100500D01*
X162613617Y-95108292D01*
X162612472Y-95116010D01*
X162610577Y-95123578D01*
X162607948Y-95130923D01*
X162604613Y-95137976D01*
X162600602Y-95144668D01*
X162595954Y-95150934D01*
X162590715Y-95156715D01*
X162584934Y-95161954D01*
X162578668Y-95166602D01*
X162571976Y-95170613D01*
X162564923Y-95173948D01*
X162557578Y-95176577D01*
X162550010Y-95178472D01*
X162542292Y-95179617D01*
X162534500Y-95180000D01*
X162375500Y-95180000D01*
X162367708Y-95179617D01*
X162359990Y-95178472D01*
X162352422Y-95176577D01*
X162345077Y-95173948D01*
X162338024Y-95170613D01*
X162331332Y-95166602D01*
X162325066Y-95161954D01*
X162319285Y-95156715D01*
X162314046Y-95150934D01*
X162309398Y-95144668D01*
X162305387Y-95137976D01*
X162302052Y-95130923D01*
X162299423Y-95123578D01*
X162297528Y-95116010D01*
X162296383Y-95108292D01*
X162296000Y-95100500D01*
X162296000Y-94899500D01*
X162296383Y-94891708D01*
X162297528Y-94883990D01*
X162299423Y-94876422D01*
X162302052Y-94869077D01*
X162305387Y-94862024D01*
X162309398Y-94855332D01*
X162314046Y-94849066D01*
X162319285Y-94843285D01*
X162325066Y-94838046D01*
X162331332Y-94833398D01*
X162338024Y-94829387D01*
X162345077Y-94826052D01*
X162352422Y-94823423D01*
X162359990Y-94821528D01*
X162367708Y-94820383D01*
X162375500Y-94820000D01*
X162534500Y-94820000D01*
X162542292Y-94820383D01*
G37*
G36*
X185032292Y-91220383D02*
G01*
X185040010Y-91221528D01*
X185047578Y-91223423D01*
X185054923Y-91226052D01*
X185061976Y-91229387D01*
X185068668Y-91233398D01*
X185074934Y-91238046D01*
X185080715Y-91243285D01*
X185085954Y-91249066D01*
X185090602Y-91255332D01*
X185094613Y-91262024D01*
X185097948Y-91269077D01*
X185100577Y-91276422D01*
X185102472Y-91283990D01*
X185103617Y-91291708D01*
X185104000Y-91299500D01*
X185104000Y-91500500D01*
X185103617Y-91508292D01*
X185102472Y-91516010D01*
X185100577Y-91523578D01*
X185097948Y-91530923D01*
X185094613Y-91537976D01*
X185090602Y-91544668D01*
X185085954Y-91550934D01*
X185080715Y-91556715D01*
X185074934Y-91561954D01*
X185068668Y-91566602D01*
X185061976Y-91570613D01*
X185054923Y-91573948D01*
X185047578Y-91576577D01*
X185040010Y-91578472D01*
X185032292Y-91579617D01*
X185024500Y-91580000D01*
X184865500Y-91580000D01*
X184857708Y-91579617D01*
X184849990Y-91578472D01*
X184842422Y-91576577D01*
X184835077Y-91573948D01*
X184828024Y-91570613D01*
X184821332Y-91566602D01*
X184815066Y-91561954D01*
X184809285Y-91556715D01*
X184804046Y-91550934D01*
X184799398Y-91544668D01*
X184795387Y-91537976D01*
X184792052Y-91530923D01*
X184789423Y-91523578D01*
X184787528Y-91516010D01*
X184786383Y-91508292D01*
X184786000Y-91500500D01*
X184786000Y-91299500D01*
X184786383Y-91291708D01*
X184787528Y-91283990D01*
X184789423Y-91276422D01*
X184792052Y-91269077D01*
X184795387Y-91262024D01*
X184799398Y-91255332D01*
X184804046Y-91249066D01*
X184809285Y-91243285D01*
X184815066Y-91238046D01*
X184821332Y-91233398D01*
X184828024Y-91229387D01*
X184835077Y-91226052D01*
X184842422Y-91223423D01*
X184849990Y-91221528D01*
X184857708Y-91220383D01*
X184865500Y-91220000D01*
X185024500Y-91220000D01*
X185032292Y-91220383D01*
G37*
G36*
X184342292Y-91220383D02*
G01*
X184350010Y-91221528D01*
X184357578Y-91223423D01*
X184364923Y-91226052D01*
X184371976Y-91229387D01*
X184378668Y-91233398D01*
X184384934Y-91238046D01*
X184390715Y-91243285D01*
X184395954Y-91249066D01*
X184400602Y-91255332D01*
X184404613Y-91262024D01*
X184407948Y-91269077D01*
X184410577Y-91276422D01*
X184412472Y-91283990D01*
X184413617Y-91291708D01*
X184414000Y-91299500D01*
X184414000Y-91500500D01*
X184413617Y-91508292D01*
X184412472Y-91516010D01*
X184410577Y-91523578D01*
X184407948Y-91530923D01*
X184404613Y-91537976D01*
X184400602Y-91544668D01*
X184395954Y-91550934D01*
X184390715Y-91556715D01*
X184384934Y-91561954D01*
X184378668Y-91566602D01*
X184371976Y-91570613D01*
X184364923Y-91573948D01*
X184357578Y-91576577D01*
X184350010Y-91578472D01*
X184342292Y-91579617D01*
X184334500Y-91580000D01*
X184175500Y-91580000D01*
X184167708Y-91579617D01*
X184159990Y-91578472D01*
X184152422Y-91576577D01*
X184145077Y-91573948D01*
X184138024Y-91570613D01*
X184131332Y-91566602D01*
X184125066Y-91561954D01*
X184119285Y-91556715D01*
X184114046Y-91550934D01*
X184109398Y-91544668D01*
X184105387Y-91537976D01*
X184102052Y-91530923D01*
X184099423Y-91523578D01*
X184097528Y-91516010D01*
X184096383Y-91508292D01*
X184096000Y-91500500D01*
X184096000Y-91299500D01*
X184096383Y-91291708D01*
X184097528Y-91283990D01*
X184099423Y-91276422D01*
X184102052Y-91269077D01*
X184105387Y-91262024D01*
X184109398Y-91255332D01*
X184114046Y-91249066D01*
X184119285Y-91243285D01*
X184125066Y-91238046D01*
X184131332Y-91233398D01*
X184138024Y-91229387D01*
X184145077Y-91226052D01*
X184152422Y-91223423D01*
X184159990Y-91221528D01*
X184167708Y-91220383D01*
X184175500Y-91220000D01*
X184334500Y-91220000D01*
X184342292Y-91220383D01*
G37*
G36*
X184292292Y-94760383D02*
G01*
X184300010Y-94761528D01*
X184307578Y-94763423D01*
X184314923Y-94766052D01*
X184321976Y-94769387D01*
X184328668Y-94773398D01*
X184334934Y-94778046D01*
X184340715Y-94783285D01*
X184345954Y-94789066D01*
X184350602Y-94795332D01*
X184354613Y-94802024D01*
X184357948Y-94809077D01*
X184360577Y-94816422D01*
X184362472Y-94823990D01*
X184363617Y-94831708D01*
X184364000Y-94839500D01*
X184364000Y-95040500D01*
X184363617Y-95048292D01*
X184362472Y-95056010D01*
X184360577Y-95063578D01*
X184357948Y-95070923D01*
X184354613Y-95077976D01*
X184350602Y-95084668D01*
X184345954Y-95090934D01*
X184340715Y-95096715D01*
X184334934Y-95101954D01*
X184328668Y-95106602D01*
X184321976Y-95110613D01*
X184314923Y-95113948D01*
X184307578Y-95116577D01*
X184300010Y-95118472D01*
X184292292Y-95119617D01*
X184284500Y-95120000D01*
X184125500Y-95120000D01*
X184117708Y-95119617D01*
X184109990Y-95118472D01*
X184102422Y-95116577D01*
X184095077Y-95113948D01*
X184088024Y-95110613D01*
X184081332Y-95106602D01*
X184075066Y-95101954D01*
X184069285Y-95096715D01*
X184064046Y-95090934D01*
X184059398Y-95084668D01*
X184055387Y-95077976D01*
X184052052Y-95070923D01*
X184049423Y-95063578D01*
X184047528Y-95056010D01*
X184046383Y-95048292D01*
X184046000Y-95040500D01*
X184046000Y-94839500D01*
X184046383Y-94831708D01*
X184047528Y-94823990D01*
X184049423Y-94816422D01*
X184052052Y-94809077D01*
X184055387Y-94802024D01*
X184059398Y-94795332D01*
X184064046Y-94789066D01*
X184069285Y-94783285D01*
X184075066Y-94778046D01*
X184081332Y-94773398D01*
X184088024Y-94769387D01*
X184095077Y-94766052D01*
X184102422Y-94763423D01*
X184109990Y-94761528D01*
X184117708Y-94760383D01*
X184125500Y-94760000D01*
X184284500Y-94760000D01*
X184292292Y-94760383D01*
G37*
G36*
X184982292Y-94760383D02*
G01*
X184990010Y-94761528D01*
X184997578Y-94763423D01*
X185004923Y-94766052D01*
X185011976Y-94769387D01*
X185018668Y-94773398D01*
X185024934Y-94778046D01*
X185030715Y-94783285D01*
X185035954Y-94789066D01*
X185040602Y-94795332D01*
X185044613Y-94802024D01*
X185047948Y-94809077D01*
X185050577Y-94816422D01*
X185052472Y-94823990D01*
X185053617Y-94831708D01*
X185054000Y-94839500D01*
X185054000Y-95040500D01*
X185053617Y-95048292D01*
X185052472Y-95056010D01*
X185050577Y-95063578D01*
X185047948Y-95070923D01*
X185044613Y-95077976D01*
X185040602Y-95084668D01*
X185035954Y-95090934D01*
X185030715Y-95096715D01*
X185024934Y-95101954D01*
X185018668Y-95106602D01*
X185011976Y-95110613D01*
X185004923Y-95113948D01*
X184997578Y-95116577D01*
X184990010Y-95118472D01*
X184982292Y-95119617D01*
X184974500Y-95120000D01*
X184815500Y-95120000D01*
X184807708Y-95119617D01*
X184799990Y-95118472D01*
X184792422Y-95116577D01*
X184785077Y-95113948D01*
X184778024Y-95110613D01*
X184771332Y-95106602D01*
X184765066Y-95101954D01*
X184759285Y-95096715D01*
X184754046Y-95090934D01*
X184749398Y-95084668D01*
X184745387Y-95077976D01*
X184742052Y-95070923D01*
X184739423Y-95063578D01*
X184737528Y-95056010D01*
X184736383Y-95048292D01*
X184736000Y-95040500D01*
X184736000Y-94839500D01*
X184736383Y-94831708D01*
X184737528Y-94823990D01*
X184739423Y-94816422D01*
X184742052Y-94809077D01*
X184745387Y-94802024D01*
X184749398Y-94795332D01*
X184754046Y-94789066D01*
X184759285Y-94783285D01*
X184765066Y-94778046D01*
X184771332Y-94773398D01*
X184778024Y-94769387D01*
X184785077Y-94766052D01*
X184792422Y-94763423D01*
X184799990Y-94761528D01*
X184807708Y-94760383D01*
X184815500Y-94760000D01*
X184974500Y-94760000D01*
X184982292Y-94760383D01*
G37*
G36*
X206661292Y-91260383D02*
G01*
X206669010Y-91261528D01*
X206676578Y-91263423D01*
X206683923Y-91266052D01*
X206690976Y-91269387D01*
X206697668Y-91273398D01*
X206703934Y-91278046D01*
X206709715Y-91283285D01*
X206714954Y-91289066D01*
X206719602Y-91295332D01*
X206723613Y-91302024D01*
X206726948Y-91309077D01*
X206729577Y-91316422D01*
X206731472Y-91323990D01*
X206732617Y-91331708D01*
X206733000Y-91339500D01*
X206733000Y-91540500D01*
X206732617Y-91548292D01*
X206731472Y-91556010D01*
X206729577Y-91563578D01*
X206726948Y-91570923D01*
X206723613Y-91577976D01*
X206719602Y-91584668D01*
X206714954Y-91590934D01*
X206709715Y-91596715D01*
X206703934Y-91601954D01*
X206697668Y-91606602D01*
X206690976Y-91610613D01*
X206683923Y-91613948D01*
X206676578Y-91616577D01*
X206669010Y-91618472D01*
X206661292Y-91619617D01*
X206653500Y-91620000D01*
X206494500Y-91620000D01*
X206486708Y-91619617D01*
X206478990Y-91618472D01*
X206471422Y-91616577D01*
X206464077Y-91613948D01*
X206457024Y-91610613D01*
X206450332Y-91606602D01*
X206444066Y-91601954D01*
X206438285Y-91596715D01*
X206433046Y-91590934D01*
X206428398Y-91584668D01*
X206424387Y-91577976D01*
X206421052Y-91570923D01*
X206418423Y-91563578D01*
X206416528Y-91556010D01*
X206415383Y-91548292D01*
X206415000Y-91540500D01*
X206415000Y-91339500D01*
X206415383Y-91331708D01*
X206416528Y-91323990D01*
X206418423Y-91316422D01*
X206421052Y-91309077D01*
X206424387Y-91302024D01*
X206428398Y-91295332D01*
X206433046Y-91289066D01*
X206438285Y-91283285D01*
X206444066Y-91278046D01*
X206450332Y-91273398D01*
X206457024Y-91269387D01*
X206464077Y-91266052D01*
X206471422Y-91263423D01*
X206478990Y-91261528D01*
X206486708Y-91260383D01*
X206494500Y-91260000D01*
X206653500Y-91260000D01*
X206661292Y-91260383D01*
G37*
G36*
X207351292Y-91260383D02*
G01*
X207359010Y-91261528D01*
X207366578Y-91263423D01*
X207373923Y-91266052D01*
X207380976Y-91269387D01*
X207387668Y-91273398D01*
X207393934Y-91278046D01*
X207399715Y-91283285D01*
X207404954Y-91289066D01*
X207409602Y-91295332D01*
X207413613Y-91302024D01*
X207416948Y-91309077D01*
X207419577Y-91316422D01*
X207421472Y-91323990D01*
X207422617Y-91331708D01*
X207423000Y-91339500D01*
X207423000Y-91540500D01*
X207422617Y-91548292D01*
X207421472Y-91556010D01*
X207419577Y-91563578D01*
X207416948Y-91570923D01*
X207413613Y-91577976D01*
X207409602Y-91584668D01*
X207404954Y-91590934D01*
X207399715Y-91596715D01*
X207393934Y-91601954D01*
X207387668Y-91606602D01*
X207380976Y-91610613D01*
X207373923Y-91613948D01*
X207366578Y-91616577D01*
X207359010Y-91618472D01*
X207351292Y-91619617D01*
X207343500Y-91620000D01*
X207184500Y-91620000D01*
X207176708Y-91619617D01*
X207168990Y-91618472D01*
X207161422Y-91616577D01*
X207154077Y-91613948D01*
X207147024Y-91610613D01*
X207140332Y-91606602D01*
X207134066Y-91601954D01*
X207128285Y-91596715D01*
X207123046Y-91590934D01*
X207118398Y-91584668D01*
X207114387Y-91577976D01*
X207111052Y-91570923D01*
X207108423Y-91563578D01*
X207106528Y-91556010D01*
X207105383Y-91548292D01*
X207105000Y-91540500D01*
X207105000Y-91339500D01*
X207105383Y-91331708D01*
X207106528Y-91323990D01*
X207108423Y-91316422D01*
X207111052Y-91309077D01*
X207114387Y-91302024D01*
X207118398Y-91295332D01*
X207123046Y-91289066D01*
X207128285Y-91283285D01*
X207134066Y-91278046D01*
X207140332Y-91273398D01*
X207147024Y-91269387D01*
X207154077Y-91266052D01*
X207161422Y-91263423D01*
X207168990Y-91261528D01*
X207176708Y-91260383D01*
X207184500Y-91260000D01*
X207343500Y-91260000D01*
X207351292Y-91260383D01*
G37*
G36*
X207188292Y-95832383D02*
G01*
X207196010Y-95833528D01*
X207203578Y-95835423D01*
X207210923Y-95838052D01*
X207217976Y-95841387D01*
X207224668Y-95845398D01*
X207230934Y-95850046D01*
X207236715Y-95855285D01*
X207241954Y-95861066D01*
X207246602Y-95867332D01*
X207250613Y-95874024D01*
X207253948Y-95881077D01*
X207256577Y-95888422D01*
X207258472Y-95895990D01*
X207259617Y-95903708D01*
X207260000Y-95911500D01*
X207260000Y-96112500D01*
X207259617Y-96120292D01*
X207258472Y-96128010D01*
X207256577Y-96135578D01*
X207253948Y-96142923D01*
X207250613Y-96149976D01*
X207246602Y-96156668D01*
X207241954Y-96162934D01*
X207236715Y-96168715D01*
X207230934Y-96173954D01*
X207224668Y-96178602D01*
X207217976Y-96182613D01*
X207210923Y-96185948D01*
X207203578Y-96188577D01*
X207196010Y-96190472D01*
X207188292Y-96191617D01*
X207180500Y-96192000D01*
X207021500Y-96192000D01*
X207013708Y-96191617D01*
X207005990Y-96190472D01*
X206998422Y-96188577D01*
X206991077Y-96185948D01*
X206984024Y-96182613D01*
X206977332Y-96178602D01*
X206971066Y-96173954D01*
X206965285Y-96168715D01*
X206960046Y-96162934D01*
X206955398Y-96156668D01*
X206951387Y-96149976D01*
X206948052Y-96142923D01*
X206945423Y-96135578D01*
X206943528Y-96128010D01*
X206942383Y-96120292D01*
X206942000Y-96112500D01*
X206942000Y-95911500D01*
X206942383Y-95903708D01*
X206943528Y-95895990D01*
X206945423Y-95888422D01*
X206948052Y-95881077D01*
X206951387Y-95874024D01*
X206955398Y-95867332D01*
X206960046Y-95861066D01*
X206965285Y-95855285D01*
X206971066Y-95850046D01*
X206977332Y-95845398D01*
X206984024Y-95841387D01*
X206991077Y-95838052D01*
X206998422Y-95835423D01*
X207005990Y-95833528D01*
X207013708Y-95832383D01*
X207021500Y-95832000D01*
X207180500Y-95832000D01*
X207188292Y-95832383D01*
G37*
G36*
X206498292Y-95832383D02*
G01*
X206506010Y-95833528D01*
X206513578Y-95835423D01*
X206520923Y-95838052D01*
X206527976Y-95841387D01*
X206534668Y-95845398D01*
X206540934Y-95850046D01*
X206546715Y-95855285D01*
X206551954Y-95861066D01*
X206556602Y-95867332D01*
X206560613Y-95874024D01*
X206563948Y-95881077D01*
X206566577Y-95888422D01*
X206568472Y-95895990D01*
X206569617Y-95903708D01*
X206570000Y-95911500D01*
X206570000Y-96112500D01*
X206569617Y-96120292D01*
X206568472Y-96128010D01*
X206566577Y-96135578D01*
X206563948Y-96142923D01*
X206560613Y-96149976D01*
X206556602Y-96156668D01*
X206551954Y-96162934D01*
X206546715Y-96168715D01*
X206540934Y-96173954D01*
X206534668Y-96178602D01*
X206527976Y-96182613D01*
X206520923Y-96185948D01*
X206513578Y-96188577D01*
X206506010Y-96190472D01*
X206498292Y-96191617D01*
X206490500Y-96192000D01*
X206331500Y-96192000D01*
X206323708Y-96191617D01*
X206315990Y-96190472D01*
X206308422Y-96188577D01*
X206301077Y-96185948D01*
X206294024Y-96182613D01*
X206287332Y-96178602D01*
X206281066Y-96173954D01*
X206275285Y-96168715D01*
X206270046Y-96162934D01*
X206265398Y-96156668D01*
X206261387Y-96149976D01*
X206258052Y-96142923D01*
X206255423Y-96135578D01*
X206253528Y-96128010D01*
X206252383Y-96120292D01*
X206252000Y-96112500D01*
X206252000Y-95911500D01*
X206252383Y-95903708D01*
X206253528Y-95895990D01*
X206255423Y-95888422D01*
X206258052Y-95881077D01*
X206261387Y-95874024D01*
X206265398Y-95867332D01*
X206270046Y-95861066D01*
X206275285Y-95855285D01*
X206281066Y-95850046D01*
X206287332Y-95845398D01*
X206294024Y-95841387D01*
X206301077Y-95838052D01*
X206308422Y-95835423D01*
X206315990Y-95833528D01*
X206323708Y-95832383D01*
X206331500Y-95832000D01*
X206490500Y-95832000D01*
X206498292Y-95832383D01*
G37*
G36*
X118796292Y-73734383D02*
G01*
X118804010Y-73735528D01*
X118811578Y-73737423D01*
X118818923Y-73740052D01*
X118825976Y-73743387D01*
X118832668Y-73747398D01*
X118838934Y-73752046D01*
X118844715Y-73757285D01*
X118849954Y-73763066D01*
X118854602Y-73769332D01*
X118858613Y-73776024D01*
X118861948Y-73783077D01*
X118864577Y-73790422D01*
X118866472Y-73797990D01*
X118867617Y-73805708D01*
X118868000Y-73813500D01*
X118868000Y-74014500D01*
X118867617Y-74022292D01*
X118866472Y-74030010D01*
X118864577Y-74037578D01*
X118861948Y-74044923D01*
X118858613Y-74051976D01*
X118854602Y-74058668D01*
X118849954Y-74064934D01*
X118844715Y-74070715D01*
X118838934Y-74075954D01*
X118832668Y-74080602D01*
X118825976Y-74084613D01*
X118818923Y-74087948D01*
X118811578Y-74090577D01*
X118804010Y-74092472D01*
X118796292Y-74093617D01*
X118788500Y-74094000D01*
X118629500Y-74094000D01*
X118621708Y-74093617D01*
X118613990Y-74092472D01*
X118606422Y-74090577D01*
X118599077Y-74087948D01*
X118592024Y-74084613D01*
X118585332Y-74080602D01*
X118579066Y-74075954D01*
X118573285Y-74070715D01*
X118568046Y-74064934D01*
X118563398Y-74058668D01*
X118559387Y-74051976D01*
X118556052Y-74044923D01*
X118553423Y-74037578D01*
X118551528Y-74030010D01*
X118550383Y-74022292D01*
X118550000Y-74014500D01*
X118550000Y-73813500D01*
X118550383Y-73805708D01*
X118551528Y-73797990D01*
X118553423Y-73790422D01*
X118556052Y-73783077D01*
X118559387Y-73776024D01*
X118563398Y-73769332D01*
X118568046Y-73763066D01*
X118573285Y-73757285D01*
X118579066Y-73752046D01*
X118585332Y-73747398D01*
X118592024Y-73743387D01*
X118599077Y-73740052D01*
X118606422Y-73737423D01*
X118613990Y-73735528D01*
X118621708Y-73734383D01*
X118629500Y-73734000D01*
X118788500Y-73734000D01*
X118796292Y-73734383D01*
G37*
G36*
X118106292Y-73734383D02*
G01*
X118114010Y-73735528D01*
X118121578Y-73737423D01*
X118128923Y-73740052D01*
X118135976Y-73743387D01*
X118142668Y-73747398D01*
X118148934Y-73752046D01*
X118154715Y-73757285D01*
X118159954Y-73763066D01*
X118164602Y-73769332D01*
X118168613Y-73776024D01*
X118171948Y-73783077D01*
X118174577Y-73790422D01*
X118176472Y-73797990D01*
X118177617Y-73805708D01*
X118178000Y-73813500D01*
X118178000Y-74014500D01*
X118177617Y-74022292D01*
X118176472Y-74030010D01*
X118174577Y-74037578D01*
X118171948Y-74044923D01*
X118168613Y-74051976D01*
X118164602Y-74058668D01*
X118159954Y-74064934D01*
X118154715Y-74070715D01*
X118148934Y-74075954D01*
X118142668Y-74080602D01*
X118135976Y-74084613D01*
X118128923Y-74087948D01*
X118121578Y-74090577D01*
X118114010Y-74092472D01*
X118106292Y-74093617D01*
X118098500Y-74094000D01*
X117939500Y-74094000D01*
X117931708Y-74093617D01*
X117923990Y-74092472D01*
X117916422Y-74090577D01*
X117909077Y-74087948D01*
X117902024Y-74084613D01*
X117895332Y-74080602D01*
X117889066Y-74075954D01*
X117883285Y-74070715D01*
X117878046Y-74064934D01*
X117873398Y-74058668D01*
X117869387Y-74051976D01*
X117866052Y-74044923D01*
X117863423Y-74037578D01*
X117861528Y-74030010D01*
X117860383Y-74022292D01*
X117860000Y-74014500D01*
X117860000Y-73813500D01*
X117860383Y-73805708D01*
X117861528Y-73797990D01*
X117863423Y-73790422D01*
X117866052Y-73783077D01*
X117869387Y-73776024D01*
X117873398Y-73769332D01*
X117878046Y-73763066D01*
X117883285Y-73757285D01*
X117889066Y-73752046D01*
X117895332Y-73747398D01*
X117902024Y-73743387D01*
X117909077Y-73740052D01*
X117916422Y-73737423D01*
X117923990Y-73735528D01*
X117931708Y-73734383D01*
X117939500Y-73734000D01*
X118098500Y-73734000D01*
X118106292Y-73734383D01*
G37*
G36*
X118106292Y-77544383D02*
G01*
X118114010Y-77545528D01*
X118121578Y-77547423D01*
X118128923Y-77550052D01*
X118135976Y-77553387D01*
X118142668Y-77557398D01*
X118148934Y-77562046D01*
X118154715Y-77567285D01*
X118159954Y-77573066D01*
X118164602Y-77579332D01*
X118168613Y-77586024D01*
X118171948Y-77593077D01*
X118174577Y-77600422D01*
X118176472Y-77607990D01*
X118177617Y-77615708D01*
X118178000Y-77623500D01*
X118178000Y-77824500D01*
X118177617Y-77832292D01*
X118176472Y-77840010D01*
X118174577Y-77847578D01*
X118171948Y-77854923D01*
X118168613Y-77861976D01*
X118164602Y-77868668D01*
X118159954Y-77874934D01*
X118154715Y-77880715D01*
X118148934Y-77885954D01*
X118142668Y-77890602D01*
X118135976Y-77894613D01*
X118128923Y-77897948D01*
X118121578Y-77900577D01*
X118114010Y-77902472D01*
X118106292Y-77903617D01*
X118098500Y-77904000D01*
X117939500Y-77904000D01*
X117931708Y-77903617D01*
X117923990Y-77902472D01*
X117916422Y-77900577D01*
X117909077Y-77897948D01*
X117902024Y-77894613D01*
X117895332Y-77890602D01*
X117889066Y-77885954D01*
X117883285Y-77880715D01*
X117878046Y-77874934D01*
X117873398Y-77868668D01*
X117869387Y-77861976D01*
X117866052Y-77854923D01*
X117863423Y-77847578D01*
X117861528Y-77840010D01*
X117860383Y-77832292D01*
X117860000Y-77824500D01*
X117860000Y-77623500D01*
X117860383Y-77615708D01*
X117861528Y-77607990D01*
X117863423Y-77600422D01*
X117866052Y-77593077D01*
X117869387Y-77586024D01*
X117873398Y-77579332D01*
X117878046Y-77573066D01*
X117883285Y-77567285D01*
X117889066Y-77562046D01*
X117895332Y-77557398D01*
X117902024Y-77553387D01*
X117909077Y-77550052D01*
X117916422Y-77547423D01*
X117923990Y-77545528D01*
X117931708Y-77544383D01*
X117939500Y-77544000D01*
X118098500Y-77544000D01*
X118106292Y-77544383D01*
G37*
G36*
X118796292Y-77544383D02*
G01*
X118804010Y-77545528D01*
X118811578Y-77547423D01*
X118818923Y-77550052D01*
X118825976Y-77553387D01*
X118832668Y-77557398D01*
X118838934Y-77562046D01*
X118844715Y-77567285D01*
X118849954Y-77573066D01*
X118854602Y-77579332D01*
X118858613Y-77586024D01*
X118861948Y-77593077D01*
X118864577Y-77600422D01*
X118866472Y-77607990D01*
X118867617Y-77615708D01*
X118868000Y-77623500D01*
X118868000Y-77824500D01*
X118867617Y-77832292D01*
X118866472Y-77840010D01*
X118864577Y-77847578D01*
X118861948Y-77854923D01*
X118858613Y-77861976D01*
X118854602Y-77868668D01*
X118849954Y-77874934D01*
X118844715Y-77880715D01*
X118838934Y-77885954D01*
X118832668Y-77890602D01*
X118825976Y-77894613D01*
X118818923Y-77897948D01*
X118811578Y-77900577D01*
X118804010Y-77902472D01*
X118796292Y-77903617D01*
X118788500Y-77904000D01*
X118629500Y-77904000D01*
X118621708Y-77903617D01*
X118613990Y-77902472D01*
X118606422Y-77900577D01*
X118599077Y-77897948D01*
X118592024Y-77894613D01*
X118585332Y-77890602D01*
X118579066Y-77885954D01*
X118573285Y-77880715D01*
X118568046Y-77874934D01*
X118563398Y-77868668D01*
X118559387Y-77861976D01*
X118556052Y-77854923D01*
X118553423Y-77847578D01*
X118551528Y-77840010D01*
X118550383Y-77832292D01*
X118550000Y-77824500D01*
X118550000Y-77623500D01*
X118550383Y-77615708D01*
X118551528Y-77607990D01*
X118553423Y-77600422D01*
X118556052Y-77593077D01*
X118559387Y-77586024D01*
X118563398Y-77579332D01*
X118568046Y-77573066D01*
X118573285Y-77567285D01*
X118579066Y-77562046D01*
X118585332Y-77557398D01*
X118592024Y-77553387D01*
X118599077Y-77550052D01*
X118606422Y-77547423D01*
X118613990Y-77545528D01*
X118621708Y-77544383D01*
X118629500Y-77544000D01*
X118788500Y-77544000D01*
X118796292Y-77544383D01*
G37*
G36*
X139696292Y-73988383D02*
G01*
X139704010Y-73989528D01*
X139711578Y-73991423D01*
X139718923Y-73994052D01*
X139725976Y-73997387D01*
X139732668Y-74001398D01*
X139738934Y-74006046D01*
X139744715Y-74011285D01*
X139749954Y-74017066D01*
X139754602Y-74023332D01*
X139758613Y-74030024D01*
X139761948Y-74037077D01*
X139764577Y-74044422D01*
X139766472Y-74051990D01*
X139767617Y-74059708D01*
X139768000Y-74067500D01*
X139768000Y-74268500D01*
X139767617Y-74276292D01*
X139766472Y-74284010D01*
X139764577Y-74291578D01*
X139761948Y-74298923D01*
X139758613Y-74305976D01*
X139754602Y-74312668D01*
X139749954Y-74318934D01*
X139744715Y-74324715D01*
X139738934Y-74329954D01*
X139732668Y-74334602D01*
X139725976Y-74338613D01*
X139718923Y-74341948D01*
X139711578Y-74344577D01*
X139704010Y-74346472D01*
X139696292Y-74347617D01*
X139688500Y-74348000D01*
X139529500Y-74348000D01*
X139521708Y-74347617D01*
X139513990Y-74346472D01*
X139506422Y-74344577D01*
X139499077Y-74341948D01*
X139492024Y-74338613D01*
X139485332Y-74334602D01*
X139479066Y-74329954D01*
X139473285Y-74324715D01*
X139468046Y-74318934D01*
X139463398Y-74312668D01*
X139459387Y-74305976D01*
X139456052Y-74298923D01*
X139453423Y-74291578D01*
X139451528Y-74284010D01*
X139450383Y-74276292D01*
X139450000Y-74268500D01*
X139450000Y-74067500D01*
X139450383Y-74059708D01*
X139451528Y-74051990D01*
X139453423Y-74044422D01*
X139456052Y-74037077D01*
X139459387Y-74030024D01*
X139463398Y-74023332D01*
X139468046Y-74017066D01*
X139473285Y-74011285D01*
X139479066Y-74006046D01*
X139485332Y-74001398D01*
X139492024Y-73997387D01*
X139499077Y-73994052D01*
X139506422Y-73991423D01*
X139513990Y-73989528D01*
X139521708Y-73988383D01*
X139529500Y-73988000D01*
X139688500Y-73988000D01*
X139696292Y-73988383D01*
G37*
G36*
X140386292Y-73988383D02*
G01*
X140394010Y-73989528D01*
X140401578Y-73991423D01*
X140408923Y-73994052D01*
X140415976Y-73997387D01*
X140422668Y-74001398D01*
X140428934Y-74006046D01*
X140434715Y-74011285D01*
X140439954Y-74017066D01*
X140444602Y-74023332D01*
X140448613Y-74030024D01*
X140451948Y-74037077D01*
X140454577Y-74044422D01*
X140456472Y-74051990D01*
X140457617Y-74059708D01*
X140458000Y-74067500D01*
X140458000Y-74268500D01*
X140457617Y-74276292D01*
X140456472Y-74284010D01*
X140454577Y-74291578D01*
X140451948Y-74298923D01*
X140448613Y-74305976D01*
X140444602Y-74312668D01*
X140439954Y-74318934D01*
X140434715Y-74324715D01*
X140428934Y-74329954D01*
X140422668Y-74334602D01*
X140415976Y-74338613D01*
X140408923Y-74341948D01*
X140401578Y-74344577D01*
X140394010Y-74346472D01*
X140386292Y-74347617D01*
X140378500Y-74348000D01*
X140219500Y-74348000D01*
X140211708Y-74347617D01*
X140203990Y-74346472D01*
X140196422Y-74344577D01*
X140189077Y-74341948D01*
X140182024Y-74338613D01*
X140175332Y-74334602D01*
X140169066Y-74329954D01*
X140163285Y-74324715D01*
X140158046Y-74318934D01*
X140153398Y-74312668D01*
X140149387Y-74305976D01*
X140146052Y-74298923D01*
X140143423Y-74291578D01*
X140141528Y-74284010D01*
X140140383Y-74276292D01*
X140140000Y-74268500D01*
X140140000Y-74067500D01*
X140140383Y-74059708D01*
X140141528Y-74051990D01*
X140143423Y-74044422D01*
X140146052Y-74037077D01*
X140149387Y-74030024D01*
X140153398Y-74023332D01*
X140158046Y-74017066D01*
X140163285Y-74011285D01*
X140169066Y-74006046D01*
X140175332Y-74001398D01*
X140182024Y-73997387D01*
X140189077Y-73994052D01*
X140196422Y-73991423D01*
X140203990Y-73989528D01*
X140211708Y-73988383D01*
X140219500Y-73988000D01*
X140378500Y-73988000D01*
X140386292Y-73988383D01*
G37*
G36*
X140386292Y-77798383D02*
G01*
X140394010Y-77799528D01*
X140401578Y-77801423D01*
X140408923Y-77804052D01*
X140415976Y-77807387D01*
X140422668Y-77811398D01*
X140428934Y-77816046D01*
X140434715Y-77821285D01*
X140439954Y-77827066D01*
X140444602Y-77833332D01*
X140448613Y-77840024D01*
X140451948Y-77847077D01*
X140454577Y-77854422D01*
X140456472Y-77861990D01*
X140457617Y-77869708D01*
X140458000Y-77877500D01*
X140458000Y-78078500D01*
X140457617Y-78086292D01*
X140456472Y-78094010D01*
X140454577Y-78101578D01*
X140451948Y-78108923D01*
X140448613Y-78115976D01*
X140444602Y-78122668D01*
X140439954Y-78128934D01*
X140434715Y-78134715D01*
X140428934Y-78139954D01*
X140422668Y-78144602D01*
X140415976Y-78148613D01*
X140408923Y-78151948D01*
X140401578Y-78154577D01*
X140394010Y-78156472D01*
X140386292Y-78157617D01*
X140378500Y-78158000D01*
X140219500Y-78158000D01*
X140211708Y-78157617D01*
X140203990Y-78156472D01*
X140196422Y-78154577D01*
X140189077Y-78151948D01*
X140182024Y-78148613D01*
X140175332Y-78144602D01*
X140169066Y-78139954D01*
X140163285Y-78134715D01*
X140158046Y-78128934D01*
X140153398Y-78122668D01*
X140149387Y-78115976D01*
X140146052Y-78108923D01*
X140143423Y-78101578D01*
X140141528Y-78094010D01*
X140140383Y-78086292D01*
X140140000Y-78078500D01*
X140140000Y-77877500D01*
X140140383Y-77869708D01*
X140141528Y-77861990D01*
X140143423Y-77854422D01*
X140146052Y-77847077D01*
X140149387Y-77840024D01*
X140153398Y-77833332D01*
X140158046Y-77827066D01*
X140163285Y-77821285D01*
X140169066Y-77816046D01*
X140175332Y-77811398D01*
X140182024Y-77807387D01*
X140189077Y-77804052D01*
X140196422Y-77801423D01*
X140203990Y-77799528D01*
X140211708Y-77798383D01*
X140219500Y-77798000D01*
X140378500Y-77798000D01*
X140386292Y-77798383D01*
G37*
G36*
X139696292Y-77798383D02*
G01*
X139704010Y-77799528D01*
X139711578Y-77801423D01*
X139718923Y-77804052D01*
X139725976Y-77807387D01*
X139732668Y-77811398D01*
X139738934Y-77816046D01*
X139744715Y-77821285D01*
X139749954Y-77827066D01*
X139754602Y-77833332D01*
X139758613Y-77840024D01*
X139761948Y-77847077D01*
X139764577Y-77854422D01*
X139766472Y-77861990D01*
X139767617Y-77869708D01*
X139768000Y-77877500D01*
X139768000Y-78078500D01*
X139767617Y-78086292D01*
X139766472Y-78094010D01*
X139764577Y-78101578D01*
X139761948Y-78108923D01*
X139758613Y-78115976D01*
X139754602Y-78122668D01*
X139749954Y-78128934D01*
X139744715Y-78134715D01*
X139738934Y-78139954D01*
X139732668Y-78144602D01*
X139725976Y-78148613D01*
X139718923Y-78151948D01*
X139711578Y-78154577D01*
X139704010Y-78156472D01*
X139696292Y-78157617D01*
X139688500Y-78158000D01*
X139529500Y-78158000D01*
X139521708Y-78157617D01*
X139513990Y-78156472D01*
X139506422Y-78154577D01*
X139499077Y-78151948D01*
X139492024Y-78148613D01*
X139485332Y-78144602D01*
X139479066Y-78139954D01*
X139473285Y-78134715D01*
X139468046Y-78128934D01*
X139463398Y-78122668D01*
X139459387Y-78115976D01*
X139456052Y-78108923D01*
X139453423Y-78101578D01*
X139451528Y-78094010D01*
X139450383Y-78086292D01*
X139450000Y-78078500D01*
X139450000Y-77877500D01*
X139450383Y-77869708D01*
X139451528Y-77861990D01*
X139453423Y-77854422D01*
X139456052Y-77847077D01*
X139459387Y-77840024D01*
X139463398Y-77833332D01*
X139468046Y-77827066D01*
X139473285Y-77821285D01*
X139479066Y-77816046D01*
X139485332Y-77811398D01*
X139492024Y-77807387D01*
X139499077Y-77804052D01*
X139506422Y-77801423D01*
X139513990Y-77799528D01*
X139521708Y-77798383D01*
X139529500Y-77798000D01*
X139688500Y-77798000D01*
X139696292Y-77798383D01*
G37*
G36*
X163754292Y-73988383D02*
G01*
X163762010Y-73989528D01*
X163769578Y-73991423D01*
X163776923Y-73994052D01*
X163783976Y-73997387D01*
X163790668Y-74001398D01*
X163796934Y-74006046D01*
X163802715Y-74011285D01*
X163807954Y-74017066D01*
X163812602Y-74023332D01*
X163816613Y-74030024D01*
X163819948Y-74037077D01*
X163822577Y-74044422D01*
X163824472Y-74051990D01*
X163825617Y-74059708D01*
X163826000Y-74067500D01*
X163826000Y-74268500D01*
X163825617Y-74276292D01*
X163824472Y-74284010D01*
X163822577Y-74291578D01*
X163819948Y-74298923D01*
X163816613Y-74305976D01*
X163812602Y-74312668D01*
X163807954Y-74318934D01*
X163802715Y-74324715D01*
X163796934Y-74329954D01*
X163790668Y-74334602D01*
X163783976Y-74338613D01*
X163776923Y-74341948D01*
X163769578Y-74344577D01*
X163762010Y-74346472D01*
X163754292Y-74347617D01*
X163746500Y-74348000D01*
X163587500Y-74348000D01*
X163579708Y-74347617D01*
X163571990Y-74346472D01*
X163564422Y-74344577D01*
X163557077Y-74341948D01*
X163550024Y-74338613D01*
X163543332Y-74334602D01*
X163537066Y-74329954D01*
X163531285Y-74324715D01*
X163526046Y-74318934D01*
X163521398Y-74312668D01*
X163517387Y-74305976D01*
X163514052Y-74298923D01*
X163511423Y-74291578D01*
X163509528Y-74284010D01*
X163508383Y-74276292D01*
X163508000Y-74268500D01*
X163508000Y-74067500D01*
X163508383Y-74059708D01*
X163509528Y-74051990D01*
X163511423Y-74044422D01*
X163514052Y-74037077D01*
X163517387Y-74030024D01*
X163521398Y-74023332D01*
X163526046Y-74017066D01*
X163531285Y-74011285D01*
X163537066Y-74006046D01*
X163543332Y-74001398D01*
X163550024Y-73997387D01*
X163557077Y-73994052D01*
X163564422Y-73991423D01*
X163571990Y-73989528D01*
X163579708Y-73988383D01*
X163587500Y-73988000D01*
X163746500Y-73988000D01*
X163754292Y-73988383D01*
G37*
G36*
X163064292Y-73988383D02*
G01*
X163072010Y-73989528D01*
X163079578Y-73991423D01*
X163086923Y-73994052D01*
X163093976Y-73997387D01*
X163100668Y-74001398D01*
X163106934Y-74006046D01*
X163112715Y-74011285D01*
X163117954Y-74017066D01*
X163122602Y-74023332D01*
X163126613Y-74030024D01*
X163129948Y-74037077D01*
X163132577Y-74044422D01*
X163134472Y-74051990D01*
X163135617Y-74059708D01*
X163136000Y-74067500D01*
X163136000Y-74268500D01*
X163135617Y-74276292D01*
X163134472Y-74284010D01*
X163132577Y-74291578D01*
X163129948Y-74298923D01*
X163126613Y-74305976D01*
X163122602Y-74312668D01*
X163117954Y-74318934D01*
X163112715Y-74324715D01*
X163106934Y-74329954D01*
X163100668Y-74334602D01*
X163093976Y-74338613D01*
X163086923Y-74341948D01*
X163079578Y-74344577D01*
X163072010Y-74346472D01*
X163064292Y-74347617D01*
X163056500Y-74348000D01*
X162897500Y-74348000D01*
X162889708Y-74347617D01*
X162881990Y-74346472D01*
X162874422Y-74344577D01*
X162867077Y-74341948D01*
X162860024Y-74338613D01*
X162853332Y-74334602D01*
X162847066Y-74329954D01*
X162841285Y-74324715D01*
X162836046Y-74318934D01*
X162831398Y-74312668D01*
X162827387Y-74305976D01*
X162824052Y-74298923D01*
X162821423Y-74291578D01*
X162819528Y-74284010D01*
X162818383Y-74276292D01*
X162818000Y-74268500D01*
X162818000Y-74067500D01*
X162818383Y-74059708D01*
X162819528Y-74051990D01*
X162821423Y-74044422D01*
X162824052Y-74037077D01*
X162827387Y-74030024D01*
X162831398Y-74023332D01*
X162836046Y-74017066D01*
X162841285Y-74011285D01*
X162847066Y-74006046D01*
X162853332Y-74001398D01*
X162860024Y-73997387D01*
X162867077Y-73994052D01*
X162874422Y-73991423D01*
X162881990Y-73989528D01*
X162889708Y-73988383D01*
X162897500Y-73988000D01*
X163056500Y-73988000D01*
X163064292Y-73988383D01*
G37*
G36*
X163155292Y-77798383D02*
G01*
X163163010Y-77799528D01*
X163170578Y-77801423D01*
X163177923Y-77804052D01*
X163184976Y-77807387D01*
X163191668Y-77811398D01*
X163197934Y-77816046D01*
X163203715Y-77821285D01*
X163208954Y-77827066D01*
X163213602Y-77833332D01*
X163217613Y-77840024D01*
X163220948Y-77847077D01*
X163223577Y-77854422D01*
X163225472Y-77861990D01*
X163226617Y-77869708D01*
X163227000Y-77877500D01*
X163227000Y-78078500D01*
X163226617Y-78086292D01*
X163225472Y-78094010D01*
X163223577Y-78101578D01*
X163220948Y-78108923D01*
X163217613Y-78115976D01*
X163213602Y-78122668D01*
X163208954Y-78128934D01*
X163203715Y-78134715D01*
X163197934Y-78139954D01*
X163191668Y-78144602D01*
X163184976Y-78148613D01*
X163177923Y-78151948D01*
X163170578Y-78154577D01*
X163163010Y-78156472D01*
X163155292Y-78157617D01*
X163147500Y-78158000D01*
X162988500Y-78158000D01*
X162980708Y-78157617D01*
X162972990Y-78156472D01*
X162965422Y-78154577D01*
X162958077Y-78151948D01*
X162951024Y-78148613D01*
X162944332Y-78144602D01*
X162938066Y-78139954D01*
X162932285Y-78134715D01*
X162927046Y-78128934D01*
X162922398Y-78122668D01*
X162918387Y-78115976D01*
X162915052Y-78108923D01*
X162912423Y-78101578D01*
X162910528Y-78094010D01*
X162909383Y-78086292D01*
X162909000Y-78078500D01*
X162909000Y-77877500D01*
X162909383Y-77869708D01*
X162910528Y-77861990D01*
X162912423Y-77854422D01*
X162915052Y-77847077D01*
X162918387Y-77840024D01*
X162922398Y-77833332D01*
X162927046Y-77827066D01*
X162932285Y-77821285D01*
X162938066Y-77816046D01*
X162944332Y-77811398D01*
X162951024Y-77807387D01*
X162958077Y-77804052D01*
X162965422Y-77801423D01*
X162972990Y-77799528D01*
X162980708Y-77798383D01*
X162988500Y-77798000D01*
X163147500Y-77798000D01*
X163155292Y-77798383D01*
G37*
G36*
X163845292Y-77798383D02*
G01*
X163853010Y-77799528D01*
X163860578Y-77801423D01*
X163867923Y-77804052D01*
X163874976Y-77807387D01*
X163881668Y-77811398D01*
X163887934Y-77816046D01*
X163893715Y-77821285D01*
X163898954Y-77827066D01*
X163903602Y-77833332D01*
X163907613Y-77840024D01*
X163910948Y-77847077D01*
X163913577Y-77854422D01*
X163915472Y-77861990D01*
X163916617Y-77869708D01*
X163917000Y-77877500D01*
X163917000Y-78078500D01*
X163916617Y-78086292D01*
X163915472Y-78094010D01*
X163913577Y-78101578D01*
X163910948Y-78108923D01*
X163907613Y-78115976D01*
X163903602Y-78122668D01*
X163898954Y-78128934D01*
X163893715Y-78134715D01*
X163887934Y-78139954D01*
X163881668Y-78144602D01*
X163874976Y-78148613D01*
X163867923Y-78151948D01*
X163860578Y-78154577D01*
X163853010Y-78156472D01*
X163845292Y-78157617D01*
X163837500Y-78158000D01*
X163678500Y-78158000D01*
X163670708Y-78157617D01*
X163662990Y-78156472D01*
X163655422Y-78154577D01*
X163648077Y-78151948D01*
X163641024Y-78148613D01*
X163634332Y-78144602D01*
X163628066Y-78139954D01*
X163622285Y-78134715D01*
X163617046Y-78128934D01*
X163612398Y-78122668D01*
X163608387Y-78115976D01*
X163605052Y-78108923D01*
X163602423Y-78101578D01*
X163600528Y-78094010D01*
X163599383Y-78086292D01*
X163599000Y-78078500D01*
X163599000Y-77877500D01*
X163599383Y-77869708D01*
X163600528Y-77861990D01*
X163602423Y-77854422D01*
X163605052Y-77847077D01*
X163608387Y-77840024D01*
X163612398Y-77833332D01*
X163617046Y-77827066D01*
X163622285Y-77821285D01*
X163628066Y-77816046D01*
X163634332Y-77811398D01*
X163641024Y-77807387D01*
X163648077Y-77804052D01*
X163655422Y-77801423D01*
X163662990Y-77799528D01*
X163670708Y-77798383D01*
X163678500Y-77798000D01*
X163837500Y-77798000D01*
X163845292Y-77798383D01*
G37*
G36*
X184400292Y-73988383D02*
G01*
X184408010Y-73989528D01*
X184415578Y-73991423D01*
X184422923Y-73994052D01*
X184429976Y-73997387D01*
X184436668Y-74001398D01*
X184442934Y-74006046D01*
X184448715Y-74011285D01*
X184453954Y-74017066D01*
X184458602Y-74023332D01*
X184462613Y-74030024D01*
X184465948Y-74037077D01*
X184468577Y-74044422D01*
X184470472Y-74051990D01*
X184471617Y-74059708D01*
X184472000Y-74067500D01*
X184472000Y-74268500D01*
X184471617Y-74276292D01*
X184470472Y-74284010D01*
X184468577Y-74291578D01*
X184465948Y-74298923D01*
X184462613Y-74305976D01*
X184458602Y-74312668D01*
X184453954Y-74318934D01*
X184448715Y-74324715D01*
X184442934Y-74329954D01*
X184436668Y-74334602D01*
X184429976Y-74338613D01*
X184422923Y-74341948D01*
X184415578Y-74344577D01*
X184408010Y-74346472D01*
X184400292Y-74347617D01*
X184392500Y-74348000D01*
X184233500Y-74348000D01*
X184225708Y-74347617D01*
X184217990Y-74346472D01*
X184210422Y-74344577D01*
X184203077Y-74341948D01*
X184196024Y-74338613D01*
X184189332Y-74334602D01*
X184183066Y-74329954D01*
X184177285Y-74324715D01*
X184172046Y-74318934D01*
X184167398Y-74312668D01*
X184163387Y-74305976D01*
X184160052Y-74298923D01*
X184157423Y-74291578D01*
X184155528Y-74284010D01*
X184154383Y-74276292D01*
X184154000Y-74268500D01*
X184154000Y-74067500D01*
X184154383Y-74059708D01*
X184155528Y-74051990D01*
X184157423Y-74044422D01*
X184160052Y-74037077D01*
X184163387Y-74030024D01*
X184167398Y-74023332D01*
X184172046Y-74017066D01*
X184177285Y-74011285D01*
X184183066Y-74006046D01*
X184189332Y-74001398D01*
X184196024Y-73997387D01*
X184203077Y-73994052D01*
X184210422Y-73991423D01*
X184217990Y-73989528D01*
X184225708Y-73988383D01*
X184233500Y-73988000D01*
X184392500Y-73988000D01*
X184400292Y-73988383D01*
G37*
G36*
X185090292Y-73988383D02*
G01*
X185098010Y-73989528D01*
X185105578Y-73991423D01*
X185112923Y-73994052D01*
X185119976Y-73997387D01*
X185126668Y-74001398D01*
X185132934Y-74006046D01*
X185138715Y-74011285D01*
X185143954Y-74017066D01*
X185148602Y-74023332D01*
X185152613Y-74030024D01*
X185155948Y-74037077D01*
X185158577Y-74044422D01*
X185160472Y-74051990D01*
X185161617Y-74059708D01*
X185162000Y-74067500D01*
X185162000Y-74268500D01*
X185161617Y-74276292D01*
X185160472Y-74284010D01*
X185158577Y-74291578D01*
X185155948Y-74298923D01*
X185152613Y-74305976D01*
X185148602Y-74312668D01*
X185143954Y-74318934D01*
X185138715Y-74324715D01*
X185132934Y-74329954D01*
X185126668Y-74334602D01*
X185119976Y-74338613D01*
X185112923Y-74341948D01*
X185105578Y-74344577D01*
X185098010Y-74346472D01*
X185090292Y-74347617D01*
X185082500Y-74348000D01*
X184923500Y-74348000D01*
X184915708Y-74347617D01*
X184907990Y-74346472D01*
X184900422Y-74344577D01*
X184893077Y-74341948D01*
X184886024Y-74338613D01*
X184879332Y-74334602D01*
X184873066Y-74329954D01*
X184867285Y-74324715D01*
X184862046Y-74318934D01*
X184857398Y-74312668D01*
X184853387Y-74305976D01*
X184850052Y-74298923D01*
X184847423Y-74291578D01*
X184845528Y-74284010D01*
X184844383Y-74276292D01*
X184844000Y-74268500D01*
X184844000Y-74067500D01*
X184844383Y-74059708D01*
X184845528Y-74051990D01*
X184847423Y-74044422D01*
X184850052Y-74037077D01*
X184853387Y-74030024D01*
X184857398Y-74023332D01*
X184862046Y-74017066D01*
X184867285Y-74011285D01*
X184873066Y-74006046D01*
X184879332Y-74001398D01*
X184886024Y-73997387D01*
X184893077Y-73994052D01*
X184900422Y-73991423D01*
X184907990Y-73989528D01*
X184915708Y-73988383D01*
X184923500Y-73988000D01*
X185082500Y-73988000D01*
X185090292Y-73988383D01*
G37*
G36*
X185090292Y-78052383D02*
G01*
X185098010Y-78053528D01*
X185105578Y-78055423D01*
X185112923Y-78058052D01*
X185119976Y-78061387D01*
X185126668Y-78065398D01*
X185132934Y-78070046D01*
X185138715Y-78075285D01*
X185143954Y-78081066D01*
X185148602Y-78087332D01*
X185152613Y-78094024D01*
X185155948Y-78101077D01*
X185158577Y-78108422D01*
X185160472Y-78115990D01*
X185161617Y-78123708D01*
X185162000Y-78131500D01*
X185162000Y-78332500D01*
X185161617Y-78340292D01*
X185160472Y-78348010D01*
X185158577Y-78355578D01*
X185155948Y-78362923D01*
X185152613Y-78369976D01*
X185148602Y-78376668D01*
X185143954Y-78382934D01*
X185138715Y-78388715D01*
X185132934Y-78393954D01*
X185126668Y-78398602D01*
X185119976Y-78402613D01*
X185112923Y-78405948D01*
X185105578Y-78408577D01*
X185098010Y-78410472D01*
X185090292Y-78411617D01*
X185082500Y-78412000D01*
X184923500Y-78412000D01*
X184915708Y-78411617D01*
X184907990Y-78410472D01*
X184900422Y-78408577D01*
X184893077Y-78405948D01*
X184886024Y-78402613D01*
X184879332Y-78398602D01*
X184873066Y-78393954D01*
X184867285Y-78388715D01*
X184862046Y-78382934D01*
X184857398Y-78376668D01*
X184853387Y-78369976D01*
X184850052Y-78362923D01*
X184847423Y-78355578D01*
X184845528Y-78348010D01*
X184844383Y-78340292D01*
X184844000Y-78332500D01*
X184844000Y-78131500D01*
X184844383Y-78123708D01*
X184845528Y-78115990D01*
X184847423Y-78108422D01*
X184850052Y-78101077D01*
X184853387Y-78094024D01*
X184857398Y-78087332D01*
X184862046Y-78081066D01*
X184867285Y-78075285D01*
X184873066Y-78070046D01*
X184879332Y-78065398D01*
X184886024Y-78061387D01*
X184893077Y-78058052D01*
X184900422Y-78055423D01*
X184907990Y-78053528D01*
X184915708Y-78052383D01*
X184923500Y-78052000D01*
X185082500Y-78052000D01*
X185090292Y-78052383D01*
G37*
G36*
X184400292Y-78052383D02*
G01*
X184408010Y-78053528D01*
X184415578Y-78055423D01*
X184422923Y-78058052D01*
X184429976Y-78061387D01*
X184436668Y-78065398D01*
X184442934Y-78070046D01*
X184448715Y-78075285D01*
X184453954Y-78081066D01*
X184458602Y-78087332D01*
X184462613Y-78094024D01*
X184465948Y-78101077D01*
X184468577Y-78108422D01*
X184470472Y-78115990D01*
X184471617Y-78123708D01*
X184472000Y-78131500D01*
X184472000Y-78332500D01*
X184471617Y-78340292D01*
X184470472Y-78348010D01*
X184468577Y-78355578D01*
X184465948Y-78362923D01*
X184462613Y-78369976D01*
X184458602Y-78376668D01*
X184453954Y-78382934D01*
X184448715Y-78388715D01*
X184442934Y-78393954D01*
X184436668Y-78398602D01*
X184429976Y-78402613D01*
X184422923Y-78405948D01*
X184415578Y-78408577D01*
X184408010Y-78410472D01*
X184400292Y-78411617D01*
X184392500Y-78412000D01*
X184233500Y-78412000D01*
X184225708Y-78411617D01*
X184217990Y-78410472D01*
X184210422Y-78408577D01*
X184203077Y-78405948D01*
X184196024Y-78402613D01*
X184189332Y-78398602D01*
X184183066Y-78393954D01*
X184177285Y-78388715D01*
X184172046Y-78382934D01*
X184167398Y-78376668D01*
X184163387Y-78369976D01*
X184160052Y-78362923D01*
X184157423Y-78355578D01*
X184155528Y-78348010D01*
X184154383Y-78340292D01*
X184154000Y-78332500D01*
X184154000Y-78131500D01*
X184154383Y-78123708D01*
X184155528Y-78115990D01*
X184157423Y-78108422D01*
X184160052Y-78101077D01*
X184163387Y-78094024D01*
X184167398Y-78087332D01*
X184172046Y-78081066D01*
X184177285Y-78075285D01*
X184183066Y-78070046D01*
X184189332Y-78065398D01*
X184196024Y-78061387D01*
X184203077Y-78058052D01*
X184210422Y-78055423D01*
X184217990Y-78053528D01*
X184225708Y-78052383D01*
X184233500Y-78052000D01*
X184392500Y-78052000D01*
X184400292Y-78052383D01*
G37*
G36*
X207442292Y-74242383D02*
G01*
X207450010Y-74243528D01*
X207457578Y-74245423D01*
X207464923Y-74248052D01*
X207471976Y-74251387D01*
X207478668Y-74255398D01*
X207484934Y-74260046D01*
X207490715Y-74265285D01*
X207495954Y-74271066D01*
X207500602Y-74277332D01*
X207504613Y-74284024D01*
X207507948Y-74291077D01*
X207510577Y-74298422D01*
X207512472Y-74305990D01*
X207513617Y-74313708D01*
X207514000Y-74321500D01*
X207514000Y-74522500D01*
X207513617Y-74530292D01*
X207512472Y-74538010D01*
X207510577Y-74545578D01*
X207507948Y-74552923D01*
X207504613Y-74559976D01*
X207500602Y-74566668D01*
X207495954Y-74572934D01*
X207490715Y-74578715D01*
X207484934Y-74583954D01*
X207478668Y-74588602D01*
X207471976Y-74592613D01*
X207464923Y-74595948D01*
X207457578Y-74598577D01*
X207450010Y-74600472D01*
X207442292Y-74601617D01*
X207434500Y-74602000D01*
X207275500Y-74602000D01*
X207267708Y-74601617D01*
X207259990Y-74600472D01*
X207252422Y-74598577D01*
X207245077Y-74595948D01*
X207238024Y-74592613D01*
X207231332Y-74588602D01*
X207225066Y-74583954D01*
X207219285Y-74578715D01*
X207214046Y-74572934D01*
X207209398Y-74566668D01*
X207205387Y-74559976D01*
X207202052Y-74552923D01*
X207199423Y-74545578D01*
X207197528Y-74538010D01*
X207196383Y-74530292D01*
X207196000Y-74522500D01*
X207196000Y-74321500D01*
X207196383Y-74313708D01*
X207197528Y-74305990D01*
X207199423Y-74298422D01*
X207202052Y-74291077D01*
X207205387Y-74284024D01*
X207209398Y-74277332D01*
X207214046Y-74271066D01*
X207219285Y-74265285D01*
X207225066Y-74260046D01*
X207231332Y-74255398D01*
X207238024Y-74251387D01*
X207245077Y-74248052D01*
X207252422Y-74245423D01*
X207259990Y-74243528D01*
X207267708Y-74242383D01*
X207275500Y-74242000D01*
X207434500Y-74242000D01*
X207442292Y-74242383D01*
G37*
G36*
X206752292Y-74242383D02*
G01*
X206760010Y-74243528D01*
X206767578Y-74245423D01*
X206774923Y-74248052D01*
X206781976Y-74251387D01*
X206788668Y-74255398D01*
X206794934Y-74260046D01*
X206800715Y-74265285D01*
X206805954Y-74271066D01*
X206810602Y-74277332D01*
X206814613Y-74284024D01*
X206817948Y-74291077D01*
X206820577Y-74298422D01*
X206822472Y-74305990D01*
X206823617Y-74313708D01*
X206824000Y-74321500D01*
X206824000Y-74522500D01*
X206823617Y-74530292D01*
X206822472Y-74538010D01*
X206820577Y-74545578D01*
X206817948Y-74552923D01*
X206814613Y-74559976D01*
X206810602Y-74566668D01*
X206805954Y-74572934D01*
X206800715Y-74578715D01*
X206794934Y-74583954D01*
X206788668Y-74588602D01*
X206781976Y-74592613D01*
X206774923Y-74595948D01*
X206767578Y-74598577D01*
X206760010Y-74600472D01*
X206752292Y-74601617D01*
X206744500Y-74602000D01*
X206585500Y-74602000D01*
X206577708Y-74601617D01*
X206569990Y-74600472D01*
X206562422Y-74598577D01*
X206555077Y-74595948D01*
X206548024Y-74592613D01*
X206541332Y-74588602D01*
X206535066Y-74583954D01*
X206529285Y-74578715D01*
X206524046Y-74572934D01*
X206519398Y-74566668D01*
X206515387Y-74559976D01*
X206512052Y-74552923D01*
X206509423Y-74545578D01*
X206507528Y-74538010D01*
X206506383Y-74530292D01*
X206506000Y-74522500D01*
X206506000Y-74321500D01*
X206506383Y-74313708D01*
X206507528Y-74305990D01*
X206509423Y-74298422D01*
X206512052Y-74291077D01*
X206515387Y-74284024D01*
X206519398Y-74277332D01*
X206524046Y-74271066D01*
X206529285Y-74265285D01*
X206535066Y-74260046D01*
X206541332Y-74255398D01*
X206548024Y-74251387D01*
X206555077Y-74248052D01*
X206562422Y-74245423D01*
X206569990Y-74243528D01*
X206577708Y-74242383D01*
X206585500Y-74242000D01*
X206744500Y-74242000D01*
X206752292Y-74242383D01*
G37*
G36*
X206752292Y-78052383D02*
G01*
X206760010Y-78053528D01*
X206767578Y-78055423D01*
X206774923Y-78058052D01*
X206781976Y-78061387D01*
X206788668Y-78065398D01*
X206794934Y-78070046D01*
X206800715Y-78075285D01*
X206805954Y-78081066D01*
X206810602Y-78087332D01*
X206814613Y-78094024D01*
X206817948Y-78101077D01*
X206820577Y-78108422D01*
X206822472Y-78115990D01*
X206823617Y-78123708D01*
X206824000Y-78131500D01*
X206824000Y-78332500D01*
X206823617Y-78340292D01*
X206822472Y-78348010D01*
X206820577Y-78355578D01*
X206817948Y-78362923D01*
X206814613Y-78369976D01*
X206810602Y-78376668D01*
X206805954Y-78382934D01*
X206800715Y-78388715D01*
X206794934Y-78393954D01*
X206788668Y-78398602D01*
X206781976Y-78402613D01*
X206774923Y-78405948D01*
X206767578Y-78408577D01*
X206760010Y-78410472D01*
X206752292Y-78411617D01*
X206744500Y-78412000D01*
X206585500Y-78412000D01*
X206577708Y-78411617D01*
X206569990Y-78410472D01*
X206562422Y-78408577D01*
X206555077Y-78405948D01*
X206548024Y-78402613D01*
X206541332Y-78398602D01*
X206535066Y-78393954D01*
X206529285Y-78388715D01*
X206524046Y-78382934D01*
X206519398Y-78376668D01*
X206515387Y-78369976D01*
X206512052Y-78362923D01*
X206509423Y-78355578D01*
X206507528Y-78348010D01*
X206506383Y-78340292D01*
X206506000Y-78332500D01*
X206506000Y-78131500D01*
X206506383Y-78123708D01*
X206507528Y-78115990D01*
X206509423Y-78108422D01*
X206512052Y-78101077D01*
X206515387Y-78094024D01*
X206519398Y-78087332D01*
X206524046Y-78081066D01*
X206529285Y-78075285D01*
X206535066Y-78070046D01*
X206541332Y-78065398D01*
X206548024Y-78061387D01*
X206555077Y-78058052D01*
X206562422Y-78055423D01*
X206569990Y-78053528D01*
X206577708Y-78052383D01*
X206585500Y-78052000D01*
X206744500Y-78052000D01*
X206752292Y-78052383D01*
G37*
G36*
X207442292Y-78052383D02*
G01*
X207450010Y-78053528D01*
X207457578Y-78055423D01*
X207464923Y-78058052D01*
X207471976Y-78061387D01*
X207478668Y-78065398D01*
X207484934Y-78070046D01*
X207490715Y-78075285D01*
X207495954Y-78081066D01*
X207500602Y-78087332D01*
X207504613Y-78094024D01*
X207507948Y-78101077D01*
X207510577Y-78108422D01*
X207512472Y-78115990D01*
X207513617Y-78123708D01*
X207514000Y-78131500D01*
X207514000Y-78332500D01*
X207513617Y-78340292D01*
X207512472Y-78348010D01*
X207510577Y-78355578D01*
X207507948Y-78362923D01*
X207504613Y-78369976D01*
X207500602Y-78376668D01*
X207495954Y-78382934D01*
X207490715Y-78388715D01*
X207484934Y-78393954D01*
X207478668Y-78398602D01*
X207471976Y-78402613D01*
X207464923Y-78405948D01*
X207457578Y-78408577D01*
X207450010Y-78410472D01*
X207442292Y-78411617D01*
X207434500Y-78412000D01*
X207275500Y-78412000D01*
X207267708Y-78411617D01*
X207259990Y-78410472D01*
X207252422Y-78408577D01*
X207245077Y-78405948D01*
X207238024Y-78402613D01*
X207231332Y-78398602D01*
X207225066Y-78393954D01*
X207219285Y-78388715D01*
X207214046Y-78382934D01*
X207209398Y-78376668D01*
X207205387Y-78369976D01*
X207202052Y-78362923D01*
X207199423Y-78355578D01*
X207197528Y-78348010D01*
X207196383Y-78340292D01*
X207196000Y-78332500D01*
X207196000Y-78131500D01*
X207196383Y-78123708D01*
X207197528Y-78115990D01*
X207199423Y-78108422D01*
X207202052Y-78101077D01*
X207205387Y-78094024D01*
X207209398Y-78087332D01*
X207214046Y-78081066D01*
X207219285Y-78075285D01*
X207225066Y-78070046D01*
X207231332Y-78065398D01*
X207238024Y-78061387D01*
X207245077Y-78058052D01*
X207252422Y-78055423D01*
X207259990Y-78053528D01*
X207267708Y-78052383D01*
X207275500Y-78052000D01*
X207434500Y-78052000D01*
X207442292Y-78052383D01*
G37*
G36*
X119050292Y-59002383D02*
G01*
X119058010Y-59003528D01*
X119065578Y-59005423D01*
X119072923Y-59008052D01*
X119079976Y-59011387D01*
X119086668Y-59015398D01*
X119092934Y-59020046D01*
X119098715Y-59025285D01*
X119103954Y-59031066D01*
X119108602Y-59037332D01*
X119112613Y-59044024D01*
X119115948Y-59051077D01*
X119118577Y-59058422D01*
X119120472Y-59065990D01*
X119121617Y-59073708D01*
X119122000Y-59081500D01*
X119122000Y-59282500D01*
X119121617Y-59290292D01*
X119120472Y-59298010D01*
X119118577Y-59305578D01*
X119115948Y-59312923D01*
X119112613Y-59319976D01*
X119108602Y-59326668D01*
X119103954Y-59332934D01*
X119098715Y-59338715D01*
X119092934Y-59343954D01*
X119086668Y-59348602D01*
X119079976Y-59352613D01*
X119072923Y-59355948D01*
X119065578Y-59358577D01*
X119058010Y-59360472D01*
X119050292Y-59361617D01*
X119042500Y-59362000D01*
X118883500Y-59362000D01*
X118875708Y-59361617D01*
X118867990Y-59360472D01*
X118860422Y-59358577D01*
X118853077Y-59355948D01*
X118846024Y-59352613D01*
X118839332Y-59348602D01*
X118833066Y-59343954D01*
X118827285Y-59338715D01*
X118822046Y-59332934D01*
X118817398Y-59326668D01*
X118813387Y-59319976D01*
X118810052Y-59312923D01*
X118807423Y-59305578D01*
X118805528Y-59298010D01*
X118804383Y-59290292D01*
X118804000Y-59282500D01*
X118804000Y-59081500D01*
X118804383Y-59073708D01*
X118805528Y-59065990D01*
X118807423Y-59058422D01*
X118810052Y-59051077D01*
X118813387Y-59044024D01*
X118817398Y-59037332D01*
X118822046Y-59031066D01*
X118827285Y-59025285D01*
X118833066Y-59020046D01*
X118839332Y-59015398D01*
X118846024Y-59011387D01*
X118853077Y-59008052D01*
X118860422Y-59005423D01*
X118867990Y-59003528D01*
X118875708Y-59002383D01*
X118883500Y-59002000D01*
X119042500Y-59002000D01*
X119050292Y-59002383D01*
G37*
G36*
X118360292Y-59002383D02*
G01*
X118368010Y-59003528D01*
X118375578Y-59005423D01*
X118382923Y-59008052D01*
X118389976Y-59011387D01*
X118396668Y-59015398D01*
X118402934Y-59020046D01*
X118408715Y-59025285D01*
X118413954Y-59031066D01*
X118418602Y-59037332D01*
X118422613Y-59044024D01*
X118425948Y-59051077D01*
X118428577Y-59058422D01*
X118430472Y-59065990D01*
X118431617Y-59073708D01*
X118432000Y-59081500D01*
X118432000Y-59282500D01*
X118431617Y-59290292D01*
X118430472Y-59298010D01*
X118428577Y-59305578D01*
X118425948Y-59312923D01*
X118422613Y-59319976D01*
X118418602Y-59326668D01*
X118413954Y-59332934D01*
X118408715Y-59338715D01*
X118402934Y-59343954D01*
X118396668Y-59348602D01*
X118389976Y-59352613D01*
X118382923Y-59355948D01*
X118375578Y-59358577D01*
X118368010Y-59360472D01*
X118360292Y-59361617D01*
X118352500Y-59362000D01*
X118193500Y-59362000D01*
X118185708Y-59361617D01*
X118177990Y-59360472D01*
X118170422Y-59358577D01*
X118163077Y-59355948D01*
X118156024Y-59352613D01*
X118149332Y-59348602D01*
X118143066Y-59343954D01*
X118137285Y-59338715D01*
X118132046Y-59332934D01*
X118127398Y-59326668D01*
X118123387Y-59319976D01*
X118120052Y-59312923D01*
X118117423Y-59305578D01*
X118115528Y-59298010D01*
X118114383Y-59290292D01*
X118114000Y-59282500D01*
X118114000Y-59081500D01*
X118114383Y-59073708D01*
X118115528Y-59065990D01*
X118117423Y-59058422D01*
X118120052Y-59051077D01*
X118123387Y-59044024D01*
X118127398Y-59037332D01*
X118132046Y-59031066D01*
X118137285Y-59025285D01*
X118143066Y-59020046D01*
X118149332Y-59015398D01*
X118156024Y-59011387D01*
X118163077Y-59008052D01*
X118170422Y-59005423D01*
X118177990Y-59003528D01*
X118185708Y-59002383D01*
X118193500Y-59002000D01*
X118352500Y-59002000D01*
X118360292Y-59002383D01*
G37*
G36*
X118360292Y-63066383D02*
G01*
X118368010Y-63067528D01*
X118375578Y-63069423D01*
X118382923Y-63072052D01*
X118389976Y-63075387D01*
X118396668Y-63079398D01*
X118402934Y-63084046D01*
X118408715Y-63089285D01*
X118413954Y-63095066D01*
X118418602Y-63101332D01*
X118422613Y-63108024D01*
X118425948Y-63115077D01*
X118428577Y-63122422D01*
X118430472Y-63129990D01*
X118431617Y-63137708D01*
X118432000Y-63145500D01*
X118432000Y-63346500D01*
X118431617Y-63354292D01*
X118430472Y-63362010D01*
X118428577Y-63369578D01*
X118425948Y-63376923D01*
X118422613Y-63383976D01*
X118418602Y-63390668D01*
X118413954Y-63396934D01*
X118408715Y-63402715D01*
X118402934Y-63407954D01*
X118396668Y-63412602D01*
X118389976Y-63416613D01*
X118382923Y-63419948D01*
X118375578Y-63422577D01*
X118368010Y-63424472D01*
X118360292Y-63425617D01*
X118352500Y-63426000D01*
X118193500Y-63426000D01*
X118185708Y-63425617D01*
X118177990Y-63424472D01*
X118170422Y-63422577D01*
X118163077Y-63419948D01*
X118156024Y-63416613D01*
X118149332Y-63412602D01*
X118143066Y-63407954D01*
X118137285Y-63402715D01*
X118132046Y-63396934D01*
X118127398Y-63390668D01*
X118123387Y-63383976D01*
X118120052Y-63376923D01*
X118117423Y-63369578D01*
X118115528Y-63362010D01*
X118114383Y-63354292D01*
X118114000Y-63346500D01*
X118114000Y-63145500D01*
X118114383Y-63137708D01*
X118115528Y-63129990D01*
X118117423Y-63122422D01*
X118120052Y-63115077D01*
X118123387Y-63108024D01*
X118127398Y-63101332D01*
X118132046Y-63095066D01*
X118137285Y-63089285D01*
X118143066Y-63084046D01*
X118149332Y-63079398D01*
X118156024Y-63075387D01*
X118163077Y-63072052D01*
X118170422Y-63069423D01*
X118177990Y-63067528D01*
X118185708Y-63066383D01*
X118193500Y-63066000D01*
X118352500Y-63066000D01*
X118360292Y-63066383D01*
G37*
G36*
X119050292Y-63066383D02*
G01*
X119058010Y-63067528D01*
X119065578Y-63069423D01*
X119072923Y-63072052D01*
X119079976Y-63075387D01*
X119086668Y-63079398D01*
X119092934Y-63084046D01*
X119098715Y-63089285D01*
X119103954Y-63095066D01*
X119108602Y-63101332D01*
X119112613Y-63108024D01*
X119115948Y-63115077D01*
X119118577Y-63122422D01*
X119120472Y-63129990D01*
X119121617Y-63137708D01*
X119122000Y-63145500D01*
X119122000Y-63346500D01*
X119121617Y-63354292D01*
X119120472Y-63362010D01*
X119118577Y-63369578D01*
X119115948Y-63376923D01*
X119112613Y-63383976D01*
X119108602Y-63390668D01*
X119103954Y-63396934D01*
X119098715Y-63402715D01*
X119092934Y-63407954D01*
X119086668Y-63412602D01*
X119079976Y-63416613D01*
X119072923Y-63419948D01*
X119065578Y-63422577D01*
X119058010Y-63424472D01*
X119050292Y-63425617D01*
X119042500Y-63426000D01*
X118883500Y-63426000D01*
X118875708Y-63425617D01*
X118867990Y-63424472D01*
X118860422Y-63422577D01*
X118853077Y-63419948D01*
X118846024Y-63416613D01*
X118839332Y-63412602D01*
X118833066Y-63407954D01*
X118827285Y-63402715D01*
X118822046Y-63396934D01*
X118817398Y-63390668D01*
X118813387Y-63383976D01*
X118810052Y-63376923D01*
X118807423Y-63369578D01*
X118805528Y-63362010D01*
X118804383Y-63354292D01*
X118804000Y-63346500D01*
X118804000Y-63145500D01*
X118804383Y-63137708D01*
X118805528Y-63129990D01*
X118807423Y-63122422D01*
X118810052Y-63115077D01*
X118813387Y-63108024D01*
X118817398Y-63101332D01*
X118822046Y-63095066D01*
X118827285Y-63089285D01*
X118833066Y-63084046D01*
X118839332Y-63079398D01*
X118846024Y-63075387D01*
X118853077Y-63072052D01*
X118860422Y-63069423D01*
X118867990Y-63067528D01*
X118875708Y-63066383D01*
X118883500Y-63066000D01*
X119042500Y-63066000D01*
X119050292Y-63066383D01*
G37*
G36*
X139950292Y-59002383D02*
G01*
X139958010Y-59003528D01*
X139965578Y-59005423D01*
X139972923Y-59008052D01*
X139979976Y-59011387D01*
X139986668Y-59015398D01*
X139992934Y-59020046D01*
X139998715Y-59025285D01*
X140003954Y-59031066D01*
X140008602Y-59037332D01*
X140012613Y-59044024D01*
X140015948Y-59051077D01*
X140018577Y-59058422D01*
X140020472Y-59065990D01*
X140021617Y-59073708D01*
X140022000Y-59081500D01*
X140022000Y-59282500D01*
X140021617Y-59290292D01*
X140020472Y-59298010D01*
X140018577Y-59305578D01*
X140015948Y-59312923D01*
X140012613Y-59319976D01*
X140008602Y-59326668D01*
X140003954Y-59332934D01*
X139998715Y-59338715D01*
X139992934Y-59343954D01*
X139986668Y-59348602D01*
X139979976Y-59352613D01*
X139972923Y-59355948D01*
X139965578Y-59358577D01*
X139958010Y-59360472D01*
X139950292Y-59361617D01*
X139942500Y-59362000D01*
X139783500Y-59362000D01*
X139775708Y-59361617D01*
X139767990Y-59360472D01*
X139760422Y-59358577D01*
X139753077Y-59355948D01*
X139746024Y-59352613D01*
X139739332Y-59348602D01*
X139733066Y-59343954D01*
X139727285Y-59338715D01*
X139722046Y-59332934D01*
X139717398Y-59326668D01*
X139713387Y-59319976D01*
X139710052Y-59312923D01*
X139707423Y-59305578D01*
X139705528Y-59298010D01*
X139704383Y-59290292D01*
X139704000Y-59282500D01*
X139704000Y-59081500D01*
X139704383Y-59073708D01*
X139705528Y-59065990D01*
X139707423Y-59058422D01*
X139710052Y-59051077D01*
X139713387Y-59044024D01*
X139717398Y-59037332D01*
X139722046Y-59031066D01*
X139727285Y-59025285D01*
X139733066Y-59020046D01*
X139739332Y-59015398D01*
X139746024Y-59011387D01*
X139753077Y-59008052D01*
X139760422Y-59005423D01*
X139767990Y-59003528D01*
X139775708Y-59002383D01*
X139783500Y-59002000D01*
X139942500Y-59002000D01*
X139950292Y-59002383D01*
G37*
G36*
X140640292Y-59002383D02*
G01*
X140648010Y-59003528D01*
X140655578Y-59005423D01*
X140662923Y-59008052D01*
X140669976Y-59011387D01*
X140676668Y-59015398D01*
X140682934Y-59020046D01*
X140688715Y-59025285D01*
X140693954Y-59031066D01*
X140698602Y-59037332D01*
X140702613Y-59044024D01*
X140705948Y-59051077D01*
X140708577Y-59058422D01*
X140710472Y-59065990D01*
X140711617Y-59073708D01*
X140712000Y-59081500D01*
X140712000Y-59282500D01*
X140711617Y-59290292D01*
X140710472Y-59298010D01*
X140708577Y-59305578D01*
X140705948Y-59312923D01*
X140702613Y-59319976D01*
X140698602Y-59326668D01*
X140693954Y-59332934D01*
X140688715Y-59338715D01*
X140682934Y-59343954D01*
X140676668Y-59348602D01*
X140669976Y-59352613D01*
X140662923Y-59355948D01*
X140655578Y-59358577D01*
X140648010Y-59360472D01*
X140640292Y-59361617D01*
X140632500Y-59362000D01*
X140473500Y-59362000D01*
X140465708Y-59361617D01*
X140457990Y-59360472D01*
X140450422Y-59358577D01*
X140443077Y-59355948D01*
X140436024Y-59352613D01*
X140429332Y-59348602D01*
X140423066Y-59343954D01*
X140417285Y-59338715D01*
X140412046Y-59332934D01*
X140407398Y-59326668D01*
X140403387Y-59319976D01*
X140400052Y-59312923D01*
X140397423Y-59305578D01*
X140395528Y-59298010D01*
X140394383Y-59290292D01*
X140394000Y-59282500D01*
X140394000Y-59081500D01*
X140394383Y-59073708D01*
X140395528Y-59065990D01*
X140397423Y-59058422D01*
X140400052Y-59051077D01*
X140403387Y-59044024D01*
X140407398Y-59037332D01*
X140412046Y-59031066D01*
X140417285Y-59025285D01*
X140423066Y-59020046D01*
X140429332Y-59015398D01*
X140436024Y-59011387D01*
X140443077Y-59008052D01*
X140450422Y-59005423D01*
X140457990Y-59003528D01*
X140465708Y-59002383D01*
X140473500Y-59002000D01*
X140632500Y-59002000D01*
X140640292Y-59002383D01*
G37*
G36*
X140640292Y-63828383D02*
G01*
X140648010Y-63829528D01*
X140655578Y-63831423D01*
X140662923Y-63834052D01*
X140669976Y-63837387D01*
X140676668Y-63841398D01*
X140682934Y-63846046D01*
X140688715Y-63851285D01*
X140693954Y-63857066D01*
X140698602Y-63863332D01*
X140702613Y-63870024D01*
X140705948Y-63877077D01*
X140708577Y-63884422D01*
X140710472Y-63891990D01*
X140711617Y-63899708D01*
X140712000Y-63907500D01*
X140712000Y-64108500D01*
X140711617Y-64116292D01*
X140710472Y-64124010D01*
X140708577Y-64131578D01*
X140705948Y-64138923D01*
X140702613Y-64145976D01*
X140698602Y-64152668D01*
X140693954Y-64158934D01*
X140688715Y-64164715D01*
X140682934Y-64169954D01*
X140676668Y-64174602D01*
X140669976Y-64178613D01*
X140662923Y-64181948D01*
X140655578Y-64184577D01*
X140648010Y-64186472D01*
X140640292Y-64187617D01*
X140632500Y-64188000D01*
X140473500Y-64188000D01*
X140465708Y-64187617D01*
X140457990Y-64186472D01*
X140450422Y-64184577D01*
X140443077Y-64181948D01*
X140436024Y-64178613D01*
X140429332Y-64174602D01*
X140423066Y-64169954D01*
X140417285Y-64164715D01*
X140412046Y-64158934D01*
X140407398Y-64152668D01*
X140403387Y-64145976D01*
X140400052Y-64138923D01*
X140397423Y-64131578D01*
X140395528Y-64124010D01*
X140394383Y-64116292D01*
X140394000Y-64108500D01*
X140394000Y-63907500D01*
X140394383Y-63899708D01*
X140395528Y-63891990D01*
X140397423Y-63884422D01*
X140400052Y-63877077D01*
X140403387Y-63870024D01*
X140407398Y-63863332D01*
X140412046Y-63857066D01*
X140417285Y-63851285D01*
X140423066Y-63846046D01*
X140429332Y-63841398D01*
X140436024Y-63837387D01*
X140443077Y-63834052D01*
X140450422Y-63831423D01*
X140457990Y-63829528D01*
X140465708Y-63828383D01*
X140473500Y-63828000D01*
X140632500Y-63828000D01*
X140640292Y-63828383D01*
G37*
G36*
X139950292Y-63828383D02*
G01*
X139958010Y-63829528D01*
X139965578Y-63831423D01*
X139972923Y-63834052D01*
X139979976Y-63837387D01*
X139986668Y-63841398D01*
X139992934Y-63846046D01*
X139998715Y-63851285D01*
X140003954Y-63857066D01*
X140008602Y-63863332D01*
X140012613Y-63870024D01*
X140015948Y-63877077D01*
X140018577Y-63884422D01*
X140020472Y-63891990D01*
X140021617Y-63899708D01*
X140022000Y-63907500D01*
X140022000Y-64108500D01*
X140021617Y-64116292D01*
X140020472Y-64124010D01*
X140018577Y-64131578D01*
X140015948Y-64138923D01*
X140012613Y-64145976D01*
X140008602Y-64152668D01*
X140003954Y-64158934D01*
X139998715Y-64164715D01*
X139992934Y-64169954D01*
X139986668Y-64174602D01*
X139979976Y-64178613D01*
X139972923Y-64181948D01*
X139965578Y-64184577D01*
X139958010Y-64186472D01*
X139950292Y-64187617D01*
X139942500Y-64188000D01*
X139783500Y-64188000D01*
X139775708Y-64187617D01*
X139767990Y-64186472D01*
X139760422Y-64184577D01*
X139753077Y-64181948D01*
X139746024Y-64178613D01*
X139739332Y-64174602D01*
X139733066Y-64169954D01*
X139727285Y-64164715D01*
X139722046Y-64158934D01*
X139717398Y-64152668D01*
X139713387Y-64145976D01*
X139710052Y-64138923D01*
X139707423Y-64131578D01*
X139705528Y-64124010D01*
X139704383Y-64116292D01*
X139704000Y-64108500D01*
X139704000Y-63907500D01*
X139704383Y-63899708D01*
X139705528Y-63891990D01*
X139707423Y-63884422D01*
X139710052Y-63877077D01*
X139713387Y-63870024D01*
X139717398Y-63863332D01*
X139722046Y-63857066D01*
X139727285Y-63851285D01*
X139733066Y-63846046D01*
X139739332Y-63841398D01*
X139746024Y-63837387D01*
X139753077Y-63834052D01*
X139760422Y-63831423D01*
X139767990Y-63829528D01*
X139775708Y-63828383D01*
X139783500Y-63828000D01*
X139942500Y-63828000D01*
X139950292Y-63828383D01*
G37*
G36*
X163942292Y-59256383D02*
G01*
X163950010Y-59257528D01*
X163957578Y-59259423D01*
X163964923Y-59262052D01*
X163971976Y-59265387D01*
X163978668Y-59269398D01*
X163984934Y-59274046D01*
X163990715Y-59279285D01*
X163995954Y-59285066D01*
X164000602Y-59291332D01*
X164004613Y-59298024D01*
X164007948Y-59305077D01*
X164010577Y-59312422D01*
X164012472Y-59319990D01*
X164013617Y-59327708D01*
X164014000Y-59335500D01*
X164014000Y-59536500D01*
X164013617Y-59544292D01*
X164012472Y-59552010D01*
X164010577Y-59559578D01*
X164007948Y-59566923D01*
X164004613Y-59573976D01*
X164000602Y-59580668D01*
X163995954Y-59586934D01*
X163990715Y-59592715D01*
X163984934Y-59597954D01*
X163978668Y-59602602D01*
X163971976Y-59606613D01*
X163964923Y-59609948D01*
X163957578Y-59612577D01*
X163950010Y-59614472D01*
X163942292Y-59615617D01*
X163934500Y-59616000D01*
X163775500Y-59616000D01*
X163767708Y-59615617D01*
X163759990Y-59614472D01*
X163752422Y-59612577D01*
X163745077Y-59609948D01*
X163738024Y-59606613D01*
X163731332Y-59602602D01*
X163725066Y-59597954D01*
X163719285Y-59592715D01*
X163714046Y-59586934D01*
X163709398Y-59580668D01*
X163705387Y-59573976D01*
X163702052Y-59566923D01*
X163699423Y-59559578D01*
X163697528Y-59552010D01*
X163696383Y-59544292D01*
X163696000Y-59536500D01*
X163696000Y-59335500D01*
X163696383Y-59327708D01*
X163697528Y-59319990D01*
X163699423Y-59312422D01*
X163702052Y-59305077D01*
X163705387Y-59298024D01*
X163709398Y-59291332D01*
X163714046Y-59285066D01*
X163719285Y-59279285D01*
X163725066Y-59274046D01*
X163731332Y-59269398D01*
X163738024Y-59265387D01*
X163745077Y-59262052D01*
X163752422Y-59259423D01*
X163759990Y-59257528D01*
X163767708Y-59256383D01*
X163775500Y-59256000D01*
X163934500Y-59256000D01*
X163942292Y-59256383D01*
G37*
G36*
X163252292Y-59256383D02*
G01*
X163260010Y-59257528D01*
X163267578Y-59259423D01*
X163274923Y-59262052D01*
X163281976Y-59265387D01*
X163288668Y-59269398D01*
X163294934Y-59274046D01*
X163300715Y-59279285D01*
X163305954Y-59285066D01*
X163310602Y-59291332D01*
X163314613Y-59298024D01*
X163317948Y-59305077D01*
X163320577Y-59312422D01*
X163322472Y-59319990D01*
X163323617Y-59327708D01*
X163324000Y-59335500D01*
X163324000Y-59536500D01*
X163323617Y-59544292D01*
X163322472Y-59552010D01*
X163320577Y-59559578D01*
X163317948Y-59566923D01*
X163314613Y-59573976D01*
X163310602Y-59580668D01*
X163305954Y-59586934D01*
X163300715Y-59592715D01*
X163294934Y-59597954D01*
X163288668Y-59602602D01*
X163281976Y-59606613D01*
X163274923Y-59609948D01*
X163267578Y-59612577D01*
X163260010Y-59614472D01*
X163252292Y-59615617D01*
X163244500Y-59616000D01*
X163085500Y-59616000D01*
X163077708Y-59615617D01*
X163069990Y-59614472D01*
X163062422Y-59612577D01*
X163055077Y-59609948D01*
X163048024Y-59606613D01*
X163041332Y-59602602D01*
X163035066Y-59597954D01*
X163029285Y-59592715D01*
X163024046Y-59586934D01*
X163019398Y-59580668D01*
X163015387Y-59573976D01*
X163012052Y-59566923D01*
X163009423Y-59559578D01*
X163007528Y-59552010D01*
X163006383Y-59544292D01*
X163006000Y-59536500D01*
X163006000Y-59335500D01*
X163006383Y-59327708D01*
X163007528Y-59319990D01*
X163009423Y-59312422D01*
X163012052Y-59305077D01*
X163015387Y-59298024D01*
X163019398Y-59291332D01*
X163024046Y-59285066D01*
X163029285Y-59279285D01*
X163035066Y-59274046D01*
X163041332Y-59269398D01*
X163048024Y-59265387D01*
X163055077Y-59262052D01*
X163062422Y-59259423D01*
X163069990Y-59257528D01*
X163077708Y-59256383D01*
X163085500Y-59256000D01*
X163244500Y-59256000D01*
X163252292Y-59256383D01*
G37*
G36*
X162973292Y-63320383D02*
G01*
X162981010Y-63321528D01*
X162988578Y-63323423D01*
X162995923Y-63326052D01*
X163002976Y-63329387D01*
X163009668Y-63333398D01*
X163015934Y-63338046D01*
X163021715Y-63343285D01*
X163026954Y-63349066D01*
X163031602Y-63355332D01*
X163035613Y-63362024D01*
X163038948Y-63369077D01*
X163041577Y-63376422D01*
X163043472Y-63383990D01*
X163044617Y-63391708D01*
X163045000Y-63399500D01*
X163045000Y-63600500D01*
X163044617Y-63608292D01*
X163043472Y-63616010D01*
X163041577Y-63623578D01*
X163038948Y-63630923D01*
X163035613Y-63637976D01*
X163031602Y-63644668D01*
X163026954Y-63650934D01*
X163021715Y-63656715D01*
X163015934Y-63661954D01*
X163009668Y-63666602D01*
X163002976Y-63670613D01*
X162995923Y-63673948D01*
X162988578Y-63676577D01*
X162981010Y-63678472D01*
X162973292Y-63679617D01*
X162965500Y-63680000D01*
X162806500Y-63680000D01*
X162798708Y-63679617D01*
X162790990Y-63678472D01*
X162783422Y-63676577D01*
X162776077Y-63673948D01*
X162769024Y-63670613D01*
X162762332Y-63666602D01*
X162756066Y-63661954D01*
X162750285Y-63656715D01*
X162745046Y-63650934D01*
X162740398Y-63644668D01*
X162736387Y-63637976D01*
X162733052Y-63630923D01*
X162730423Y-63623578D01*
X162728528Y-63616010D01*
X162727383Y-63608292D01*
X162727000Y-63600500D01*
X162727000Y-63399500D01*
X162727383Y-63391708D01*
X162728528Y-63383990D01*
X162730423Y-63376422D01*
X162733052Y-63369077D01*
X162736387Y-63362024D01*
X162740398Y-63355332D01*
X162745046Y-63349066D01*
X162750285Y-63343285D01*
X162756066Y-63338046D01*
X162762332Y-63333398D01*
X162769024Y-63329387D01*
X162776077Y-63326052D01*
X162783422Y-63323423D01*
X162790990Y-63321528D01*
X162798708Y-63320383D01*
X162806500Y-63320000D01*
X162965500Y-63320000D01*
X162973292Y-63320383D01*
G37*
G36*
X163663292Y-63320383D02*
G01*
X163671010Y-63321528D01*
X163678578Y-63323423D01*
X163685923Y-63326052D01*
X163692976Y-63329387D01*
X163699668Y-63333398D01*
X163705934Y-63338046D01*
X163711715Y-63343285D01*
X163716954Y-63349066D01*
X163721602Y-63355332D01*
X163725613Y-63362024D01*
X163728948Y-63369077D01*
X163731577Y-63376422D01*
X163733472Y-63383990D01*
X163734617Y-63391708D01*
X163735000Y-63399500D01*
X163735000Y-63600500D01*
X163734617Y-63608292D01*
X163733472Y-63616010D01*
X163731577Y-63623578D01*
X163728948Y-63630923D01*
X163725613Y-63637976D01*
X163721602Y-63644668D01*
X163716954Y-63650934D01*
X163711715Y-63656715D01*
X163705934Y-63661954D01*
X163699668Y-63666602D01*
X163692976Y-63670613D01*
X163685923Y-63673948D01*
X163678578Y-63676577D01*
X163671010Y-63678472D01*
X163663292Y-63679617D01*
X163655500Y-63680000D01*
X163496500Y-63680000D01*
X163488708Y-63679617D01*
X163480990Y-63678472D01*
X163473422Y-63676577D01*
X163466077Y-63673948D01*
X163459024Y-63670613D01*
X163452332Y-63666602D01*
X163446066Y-63661954D01*
X163440285Y-63656715D01*
X163435046Y-63650934D01*
X163430398Y-63644668D01*
X163426387Y-63637976D01*
X163423052Y-63630923D01*
X163420423Y-63623578D01*
X163418528Y-63616010D01*
X163417383Y-63608292D01*
X163417000Y-63600500D01*
X163417000Y-63399500D01*
X163417383Y-63391708D01*
X163418528Y-63383990D01*
X163420423Y-63376422D01*
X163423052Y-63369077D01*
X163426387Y-63362024D01*
X163430398Y-63355332D01*
X163435046Y-63349066D01*
X163440285Y-63343285D01*
X163446066Y-63338046D01*
X163452332Y-63333398D01*
X163459024Y-63329387D01*
X163466077Y-63326052D01*
X163473422Y-63323423D01*
X163480990Y-63321528D01*
X163488708Y-63320383D01*
X163496500Y-63320000D01*
X163655500Y-63320000D01*
X163663292Y-63320383D01*
G37*
G36*
X185156292Y-59256383D02*
G01*
X185164010Y-59257528D01*
X185171578Y-59259423D01*
X185178923Y-59262052D01*
X185185976Y-59265387D01*
X185192668Y-59269398D01*
X185198934Y-59274046D01*
X185204715Y-59279285D01*
X185209954Y-59285066D01*
X185214602Y-59291332D01*
X185218613Y-59298024D01*
X185221948Y-59305077D01*
X185224577Y-59312422D01*
X185226472Y-59319990D01*
X185227617Y-59327708D01*
X185228000Y-59335500D01*
X185228000Y-59536500D01*
X185227617Y-59544292D01*
X185226472Y-59552010D01*
X185224577Y-59559578D01*
X185221948Y-59566923D01*
X185218613Y-59573976D01*
X185214602Y-59580668D01*
X185209954Y-59586934D01*
X185204715Y-59592715D01*
X185198934Y-59597954D01*
X185192668Y-59602602D01*
X185185976Y-59606613D01*
X185178923Y-59609948D01*
X185171578Y-59612577D01*
X185164010Y-59614472D01*
X185156292Y-59615617D01*
X185148500Y-59616000D01*
X184989500Y-59616000D01*
X184981708Y-59615617D01*
X184973990Y-59614472D01*
X184966422Y-59612577D01*
X184959077Y-59609948D01*
X184952024Y-59606613D01*
X184945332Y-59602602D01*
X184939066Y-59597954D01*
X184933285Y-59592715D01*
X184928046Y-59586934D01*
X184923398Y-59580668D01*
X184919387Y-59573976D01*
X184916052Y-59566923D01*
X184913423Y-59559578D01*
X184911528Y-59552010D01*
X184910383Y-59544292D01*
X184910000Y-59536500D01*
X184910000Y-59335500D01*
X184910383Y-59327708D01*
X184911528Y-59319990D01*
X184913423Y-59312422D01*
X184916052Y-59305077D01*
X184919387Y-59298024D01*
X184923398Y-59291332D01*
X184928046Y-59285066D01*
X184933285Y-59279285D01*
X184939066Y-59274046D01*
X184945332Y-59269398D01*
X184952024Y-59265387D01*
X184959077Y-59262052D01*
X184966422Y-59259423D01*
X184973990Y-59257528D01*
X184981708Y-59256383D01*
X184989500Y-59256000D01*
X185148500Y-59256000D01*
X185156292Y-59256383D01*
G37*
G36*
X184466292Y-59256383D02*
G01*
X184474010Y-59257528D01*
X184481578Y-59259423D01*
X184488923Y-59262052D01*
X184495976Y-59265387D01*
X184502668Y-59269398D01*
X184508934Y-59274046D01*
X184514715Y-59279285D01*
X184519954Y-59285066D01*
X184524602Y-59291332D01*
X184528613Y-59298024D01*
X184531948Y-59305077D01*
X184534577Y-59312422D01*
X184536472Y-59319990D01*
X184537617Y-59327708D01*
X184538000Y-59335500D01*
X184538000Y-59536500D01*
X184537617Y-59544292D01*
X184536472Y-59552010D01*
X184534577Y-59559578D01*
X184531948Y-59566923D01*
X184528613Y-59573976D01*
X184524602Y-59580668D01*
X184519954Y-59586934D01*
X184514715Y-59592715D01*
X184508934Y-59597954D01*
X184502668Y-59602602D01*
X184495976Y-59606613D01*
X184488923Y-59609948D01*
X184481578Y-59612577D01*
X184474010Y-59614472D01*
X184466292Y-59615617D01*
X184458500Y-59616000D01*
X184299500Y-59616000D01*
X184291708Y-59615617D01*
X184283990Y-59614472D01*
X184276422Y-59612577D01*
X184269077Y-59609948D01*
X184262024Y-59606613D01*
X184255332Y-59602602D01*
X184249066Y-59597954D01*
X184243285Y-59592715D01*
X184238046Y-59586934D01*
X184233398Y-59580668D01*
X184229387Y-59573976D01*
X184226052Y-59566923D01*
X184223423Y-59559578D01*
X184221528Y-59552010D01*
X184220383Y-59544292D01*
X184220000Y-59536500D01*
X184220000Y-59335500D01*
X184220383Y-59327708D01*
X184221528Y-59319990D01*
X184223423Y-59312422D01*
X184226052Y-59305077D01*
X184229387Y-59298024D01*
X184233398Y-59291332D01*
X184238046Y-59285066D01*
X184243285Y-59279285D01*
X184249066Y-59274046D01*
X184255332Y-59269398D01*
X184262024Y-59265387D01*
X184269077Y-59262052D01*
X184276422Y-59259423D01*
X184283990Y-59257528D01*
X184291708Y-59256383D01*
X184299500Y-59256000D01*
X184458500Y-59256000D01*
X184466292Y-59256383D01*
G37*
G36*
X184309292Y-63320383D02*
G01*
X184317010Y-63321528D01*
X184324578Y-63323423D01*
X184331923Y-63326052D01*
X184338976Y-63329387D01*
X184345668Y-63333398D01*
X184351934Y-63338046D01*
X184357715Y-63343285D01*
X184362954Y-63349066D01*
X184367602Y-63355332D01*
X184371613Y-63362024D01*
X184374948Y-63369077D01*
X184377577Y-63376422D01*
X184379472Y-63383990D01*
X184380617Y-63391708D01*
X184381000Y-63399500D01*
X184381000Y-63600500D01*
X184380617Y-63608292D01*
X184379472Y-63616010D01*
X184377577Y-63623578D01*
X184374948Y-63630923D01*
X184371613Y-63637976D01*
X184367602Y-63644668D01*
X184362954Y-63650934D01*
X184357715Y-63656715D01*
X184351934Y-63661954D01*
X184345668Y-63666602D01*
X184338976Y-63670613D01*
X184331923Y-63673948D01*
X184324578Y-63676577D01*
X184317010Y-63678472D01*
X184309292Y-63679617D01*
X184301500Y-63680000D01*
X184142500Y-63680000D01*
X184134708Y-63679617D01*
X184126990Y-63678472D01*
X184119422Y-63676577D01*
X184112077Y-63673948D01*
X184105024Y-63670613D01*
X184098332Y-63666602D01*
X184092066Y-63661954D01*
X184086285Y-63656715D01*
X184081046Y-63650934D01*
X184076398Y-63644668D01*
X184072387Y-63637976D01*
X184069052Y-63630923D01*
X184066423Y-63623578D01*
X184064528Y-63616010D01*
X184063383Y-63608292D01*
X184063000Y-63600500D01*
X184063000Y-63399500D01*
X184063383Y-63391708D01*
X184064528Y-63383990D01*
X184066423Y-63376422D01*
X184069052Y-63369077D01*
X184072387Y-63362024D01*
X184076398Y-63355332D01*
X184081046Y-63349066D01*
X184086285Y-63343285D01*
X184092066Y-63338046D01*
X184098332Y-63333398D01*
X184105024Y-63329387D01*
X184112077Y-63326052D01*
X184119422Y-63323423D01*
X184126990Y-63321528D01*
X184134708Y-63320383D01*
X184142500Y-63320000D01*
X184301500Y-63320000D01*
X184309292Y-63320383D01*
G37*
G36*
X184999292Y-63320383D02*
G01*
X185007010Y-63321528D01*
X185014578Y-63323423D01*
X185021923Y-63326052D01*
X185028976Y-63329387D01*
X185035668Y-63333398D01*
X185041934Y-63338046D01*
X185047715Y-63343285D01*
X185052954Y-63349066D01*
X185057602Y-63355332D01*
X185061613Y-63362024D01*
X185064948Y-63369077D01*
X185067577Y-63376422D01*
X185069472Y-63383990D01*
X185070617Y-63391708D01*
X185071000Y-63399500D01*
X185071000Y-63600500D01*
X185070617Y-63608292D01*
X185069472Y-63616010D01*
X185067577Y-63623578D01*
X185064948Y-63630923D01*
X185061613Y-63637976D01*
X185057602Y-63644668D01*
X185052954Y-63650934D01*
X185047715Y-63656715D01*
X185041934Y-63661954D01*
X185035668Y-63666602D01*
X185028976Y-63670613D01*
X185021923Y-63673948D01*
X185014578Y-63676577D01*
X185007010Y-63678472D01*
X184999292Y-63679617D01*
X184991500Y-63680000D01*
X184832500Y-63680000D01*
X184824708Y-63679617D01*
X184816990Y-63678472D01*
X184809422Y-63676577D01*
X184802077Y-63673948D01*
X184795024Y-63670613D01*
X184788332Y-63666602D01*
X184782066Y-63661954D01*
X184776285Y-63656715D01*
X184771046Y-63650934D01*
X184766398Y-63644668D01*
X184762387Y-63637976D01*
X184759052Y-63630923D01*
X184756423Y-63623578D01*
X184754528Y-63616010D01*
X184753383Y-63608292D01*
X184753000Y-63600500D01*
X184753000Y-63399500D01*
X184753383Y-63391708D01*
X184754528Y-63383990D01*
X184756423Y-63376422D01*
X184759052Y-63369077D01*
X184762387Y-63362024D01*
X184766398Y-63355332D01*
X184771046Y-63349066D01*
X184776285Y-63343285D01*
X184782066Y-63338046D01*
X184788332Y-63333398D01*
X184795024Y-63329387D01*
X184802077Y-63326052D01*
X184809422Y-63323423D01*
X184816990Y-63321528D01*
X184824708Y-63320383D01*
X184832500Y-63320000D01*
X184991500Y-63320000D01*
X184999292Y-63320383D01*
G37*
G36*
X207442292Y-59256383D02*
G01*
X207450010Y-59257528D01*
X207457578Y-59259423D01*
X207464923Y-59262052D01*
X207471976Y-59265387D01*
X207478668Y-59269398D01*
X207484934Y-59274046D01*
X207490715Y-59279285D01*
X207495954Y-59285066D01*
X207500602Y-59291332D01*
X207504613Y-59298024D01*
X207507948Y-59305077D01*
X207510577Y-59312422D01*
X207512472Y-59319990D01*
X207513617Y-59327708D01*
X207514000Y-59335500D01*
X207514000Y-59536500D01*
X207513617Y-59544292D01*
X207512472Y-59552010D01*
X207510577Y-59559578D01*
X207507948Y-59566923D01*
X207504613Y-59573976D01*
X207500602Y-59580668D01*
X207495954Y-59586934D01*
X207490715Y-59592715D01*
X207484934Y-59597954D01*
X207478668Y-59602602D01*
X207471976Y-59606613D01*
X207464923Y-59609948D01*
X207457578Y-59612577D01*
X207450010Y-59614472D01*
X207442292Y-59615617D01*
X207434500Y-59616000D01*
X207275500Y-59616000D01*
X207267708Y-59615617D01*
X207259990Y-59614472D01*
X207252422Y-59612577D01*
X207245077Y-59609948D01*
X207238024Y-59606613D01*
X207231332Y-59602602D01*
X207225066Y-59597954D01*
X207219285Y-59592715D01*
X207214046Y-59586934D01*
X207209398Y-59580668D01*
X207205387Y-59573976D01*
X207202052Y-59566923D01*
X207199423Y-59559578D01*
X207197528Y-59552010D01*
X207196383Y-59544292D01*
X207196000Y-59536500D01*
X207196000Y-59335500D01*
X207196383Y-59327708D01*
X207197528Y-59319990D01*
X207199423Y-59312422D01*
X207202052Y-59305077D01*
X207205387Y-59298024D01*
X207209398Y-59291332D01*
X207214046Y-59285066D01*
X207219285Y-59279285D01*
X207225066Y-59274046D01*
X207231332Y-59269398D01*
X207238024Y-59265387D01*
X207245077Y-59262052D01*
X207252422Y-59259423D01*
X207259990Y-59257528D01*
X207267708Y-59256383D01*
X207275500Y-59256000D01*
X207434500Y-59256000D01*
X207442292Y-59256383D01*
G37*
G36*
X206752292Y-59256383D02*
G01*
X206760010Y-59257528D01*
X206767578Y-59259423D01*
X206774923Y-59262052D01*
X206781976Y-59265387D01*
X206788668Y-59269398D01*
X206794934Y-59274046D01*
X206800715Y-59279285D01*
X206805954Y-59285066D01*
X206810602Y-59291332D01*
X206814613Y-59298024D01*
X206817948Y-59305077D01*
X206820577Y-59312422D01*
X206822472Y-59319990D01*
X206823617Y-59327708D01*
X206824000Y-59335500D01*
X206824000Y-59536500D01*
X206823617Y-59544292D01*
X206822472Y-59552010D01*
X206820577Y-59559578D01*
X206817948Y-59566923D01*
X206814613Y-59573976D01*
X206810602Y-59580668D01*
X206805954Y-59586934D01*
X206800715Y-59592715D01*
X206794934Y-59597954D01*
X206788668Y-59602602D01*
X206781976Y-59606613D01*
X206774923Y-59609948D01*
X206767578Y-59612577D01*
X206760010Y-59614472D01*
X206752292Y-59615617D01*
X206744500Y-59616000D01*
X206585500Y-59616000D01*
X206577708Y-59615617D01*
X206569990Y-59614472D01*
X206562422Y-59612577D01*
X206555077Y-59609948D01*
X206548024Y-59606613D01*
X206541332Y-59602602D01*
X206535066Y-59597954D01*
X206529285Y-59592715D01*
X206524046Y-59586934D01*
X206519398Y-59580668D01*
X206515387Y-59573976D01*
X206512052Y-59566923D01*
X206509423Y-59559578D01*
X206507528Y-59552010D01*
X206506383Y-59544292D01*
X206506000Y-59536500D01*
X206506000Y-59335500D01*
X206506383Y-59327708D01*
X206507528Y-59319990D01*
X206509423Y-59312422D01*
X206512052Y-59305077D01*
X206515387Y-59298024D01*
X206519398Y-59291332D01*
X206524046Y-59285066D01*
X206529285Y-59279285D01*
X206535066Y-59274046D01*
X206541332Y-59269398D01*
X206548024Y-59265387D01*
X206555077Y-59262052D01*
X206562422Y-59259423D01*
X206569990Y-59257528D01*
X206577708Y-59256383D01*
X206585500Y-59256000D01*
X206744500Y-59256000D01*
X206752292Y-59256383D01*
G37*
G36*
X206661292Y-63066383D02*
G01*
X206669010Y-63067528D01*
X206676578Y-63069423D01*
X206683923Y-63072052D01*
X206690976Y-63075387D01*
X206697668Y-63079398D01*
X206703934Y-63084046D01*
X206709715Y-63089285D01*
X206714954Y-63095066D01*
X206719602Y-63101332D01*
X206723613Y-63108024D01*
X206726948Y-63115077D01*
X206729577Y-63122422D01*
X206731472Y-63129990D01*
X206732617Y-63137708D01*
X206733000Y-63145500D01*
X206733000Y-63346500D01*
X206732617Y-63354292D01*
X206731472Y-63362010D01*
X206729577Y-63369578D01*
X206726948Y-63376923D01*
X206723613Y-63383976D01*
X206719602Y-63390668D01*
X206714954Y-63396934D01*
X206709715Y-63402715D01*
X206703934Y-63407954D01*
X206697668Y-63412602D01*
X206690976Y-63416613D01*
X206683923Y-63419948D01*
X206676578Y-63422577D01*
X206669010Y-63424472D01*
X206661292Y-63425617D01*
X206653500Y-63426000D01*
X206494500Y-63426000D01*
X206486708Y-63425617D01*
X206478990Y-63424472D01*
X206471422Y-63422577D01*
X206464077Y-63419948D01*
X206457024Y-63416613D01*
X206450332Y-63412602D01*
X206444066Y-63407954D01*
X206438285Y-63402715D01*
X206433046Y-63396934D01*
X206428398Y-63390668D01*
X206424387Y-63383976D01*
X206421052Y-63376923D01*
X206418423Y-63369578D01*
X206416528Y-63362010D01*
X206415383Y-63354292D01*
X206415000Y-63346500D01*
X206415000Y-63145500D01*
X206415383Y-63137708D01*
X206416528Y-63129990D01*
X206418423Y-63122422D01*
X206421052Y-63115077D01*
X206424387Y-63108024D01*
X206428398Y-63101332D01*
X206433046Y-63095066D01*
X206438285Y-63089285D01*
X206444066Y-63084046D01*
X206450332Y-63079398D01*
X206457024Y-63075387D01*
X206464077Y-63072052D01*
X206471422Y-63069423D01*
X206478990Y-63067528D01*
X206486708Y-63066383D01*
X206494500Y-63066000D01*
X206653500Y-63066000D01*
X206661292Y-63066383D01*
G37*
G36*
X207351292Y-63066383D02*
G01*
X207359010Y-63067528D01*
X207366578Y-63069423D01*
X207373923Y-63072052D01*
X207380976Y-63075387D01*
X207387668Y-63079398D01*
X207393934Y-63084046D01*
X207399715Y-63089285D01*
X207404954Y-63095066D01*
X207409602Y-63101332D01*
X207413613Y-63108024D01*
X207416948Y-63115077D01*
X207419577Y-63122422D01*
X207421472Y-63129990D01*
X207422617Y-63137708D01*
X207423000Y-63145500D01*
X207423000Y-63346500D01*
X207422617Y-63354292D01*
X207421472Y-63362010D01*
X207419577Y-63369578D01*
X207416948Y-63376923D01*
X207413613Y-63383976D01*
X207409602Y-63390668D01*
X207404954Y-63396934D01*
X207399715Y-63402715D01*
X207393934Y-63407954D01*
X207387668Y-63412602D01*
X207380976Y-63416613D01*
X207373923Y-63419948D01*
X207366578Y-63422577D01*
X207359010Y-63424472D01*
X207351292Y-63425617D01*
X207343500Y-63426000D01*
X207184500Y-63426000D01*
X207176708Y-63425617D01*
X207168990Y-63424472D01*
X207161422Y-63422577D01*
X207154077Y-63419948D01*
X207147024Y-63416613D01*
X207140332Y-63412602D01*
X207134066Y-63407954D01*
X207128285Y-63402715D01*
X207123046Y-63396934D01*
X207118398Y-63390668D01*
X207114387Y-63383976D01*
X207111052Y-63376923D01*
X207108423Y-63369578D01*
X207106528Y-63362010D01*
X207105383Y-63354292D01*
X207105000Y-63346500D01*
X207105000Y-63145500D01*
X207105383Y-63137708D01*
X207106528Y-63129990D01*
X207108423Y-63122422D01*
X207111052Y-63115077D01*
X207114387Y-63108024D01*
X207118398Y-63101332D01*
X207123046Y-63095066D01*
X207128285Y-63089285D01*
X207134066Y-63084046D01*
X207140332Y-63079398D01*
X207147024Y-63075387D01*
X207154077Y-63072052D01*
X207161422Y-63069423D01*
X207168990Y-63067528D01*
X207176708Y-63066383D01*
X207184500Y-63066000D01*
X207343500Y-63066000D01*
X207351292Y-63066383D01*
G37*
G36*
X118523292Y-43762383D02*
G01*
X118531010Y-43763528D01*
X118538578Y-43765423D01*
X118545923Y-43768052D01*
X118552976Y-43771387D01*
X118559668Y-43775398D01*
X118565934Y-43780046D01*
X118571715Y-43785285D01*
X118576954Y-43791066D01*
X118581602Y-43797332D01*
X118585613Y-43804024D01*
X118588948Y-43811077D01*
X118591577Y-43818422D01*
X118593472Y-43825990D01*
X118594617Y-43833708D01*
X118595000Y-43841500D01*
X118595000Y-44042500D01*
X118594617Y-44050292D01*
X118593472Y-44058010D01*
X118591577Y-44065578D01*
X118588948Y-44072923D01*
X118585613Y-44079976D01*
X118581602Y-44086668D01*
X118576954Y-44092934D01*
X118571715Y-44098715D01*
X118565934Y-44103954D01*
X118559668Y-44108602D01*
X118552976Y-44112613D01*
X118545923Y-44115948D01*
X118538578Y-44118577D01*
X118531010Y-44120472D01*
X118523292Y-44121617D01*
X118515500Y-44122000D01*
X118356500Y-44122000D01*
X118348708Y-44121617D01*
X118340990Y-44120472D01*
X118333422Y-44118577D01*
X118326077Y-44115948D01*
X118319024Y-44112613D01*
X118312332Y-44108602D01*
X118306066Y-44103954D01*
X118300285Y-44098715D01*
X118295046Y-44092934D01*
X118290398Y-44086668D01*
X118286387Y-44079976D01*
X118283052Y-44072923D01*
X118280423Y-44065578D01*
X118278528Y-44058010D01*
X118277383Y-44050292D01*
X118277000Y-44042500D01*
X118277000Y-43841500D01*
X118277383Y-43833708D01*
X118278528Y-43825990D01*
X118280423Y-43818422D01*
X118283052Y-43811077D01*
X118286387Y-43804024D01*
X118290398Y-43797332D01*
X118295046Y-43791066D01*
X118300285Y-43785285D01*
X118306066Y-43780046D01*
X118312332Y-43775398D01*
X118319024Y-43771387D01*
X118326077Y-43768052D01*
X118333422Y-43765423D01*
X118340990Y-43763528D01*
X118348708Y-43762383D01*
X118356500Y-43762000D01*
X118515500Y-43762000D01*
X118523292Y-43762383D01*
G37*
G36*
X119213292Y-43762383D02*
G01*
X119221010Y-43763528D01*
X119228578Y-43765423D01*
X119235923Y-43768052D01*
X119242976Y-43771387D01*
X119249668Y-43775398D01*
X119255934Y-43780046D01*
X119261715Y-43785285D01*
X119266954Y-43791066D01*
X119271602Y-43797332D01*
X119275613Y-43804024D01*
X119278948Y-43811077D01*
X119281577Y-43818422D01*
X119283472Y-43825990D01*
X119284617Y-43833708D01*
X119285000Y-43841500D01*
X119285000Y-44042500D01*
X119284617Y-44050292D01*
X119283472Y-44058010D01*
X119281577Y-44065578D01*
X119278948Y-44072923D01*
X119275613Y-44079976D01*
X119271602Y-44086668D01*
X119266954Y-44092934D01*
X119261715Y-44098715D01*
X119255934Y-44103954D01*
X119249668Y-44108602D01*
X119242976Y-44112613D01*
X119235923Y-44115948D01*
X119228578Y-44118577D01*
X119221010Y-44120472D01*
X119213292Y-44121617D01*
X119205500Y-44122000D01*
X119046500Y-44122000D01*
X119038708Y-44121617D01*
X119030990Y-44120472D01*
X119023422Y-44118577D01*
X119016077Y-44115948D01*
X119009024Y-44112613D01*
X119002332Y-44108602D01*
X118996066Y-44103954D01*
X118990285Y-44098715D01*
X118985046Y-44092934D01*
X118980398Y-44086668D01*
X118976387Y-44079976D01*
X118973052Y-44072923D01*
X118970423Y-44065578D01*
X118968528Y-44058010D01*
X118967383Y-44050292D01*
X118967000Y-44042500D01*
X118967000Y-43841500D01*
X118967383Y-43833708D01*
X118968528Y-43825990D01*
X118970423Y-43818422D01*
X118973052Y-43811077D01*
X118976387Y-43804024D01*
X118980398Y-43797332D01*
X118985046Y-43791066D01*
X118990285Y-43785285D01*
X118996066Y-43780046D01*
X119002332Y-43775398D01*
X119009024Y-43771387D01*
X119016077Y-43768052D01*
X119023422Y-43765423D01*
X119030990Y-43763528D01*
X119038708Y-43762383D01*
X119046500Y-43762000D01*
X119205500Y-43762000D01*
X119213292Y-43762383D01*
G37*
G36*
X119370292Y-48080383D02*
G01*
X119378010Y-48081528D01*
X119385578Y-48083423D01*
X119392923Y-48086052D01*
X119399976Y-48089387D01*
X119406668Y-48093398D01*
X119412934Y-48098046D01*
X119418715Y-48103285D01*
X119423954Y-48109066D01*
X119428602Y-48115332D01*
X119432613Y-48122024D01*
X119435948Y-48129077D01*
X119438577Y-48136422D01*
X119440472Y-48143990D01*
X119441617Y-48151708D01*
X119442000Y-48159500D01*
X119442000Y-48360500D01*
X119441617Y-48368292D01*
X119440472Y-48376010D01*
X119438577Y-48383578D01*
X119435948Y-48390923D01*
X119432613Y-48397976D01*
X119428602Y-48404668D01*
X119423954Y-48410934D01*
X119418715Y-48416715D01*
X119412934Y-48421954D01*
X119406668Y-48426602D01*
X119399976Y-48430613D01*
X119392923Y-48433948D01*
X119385578Y-48436577D01*
X119378010Y-48438472D01*
X119370292Y-48439617D01*
X119362500Y-48440000D01*
X119203500Y-48440000D01*
X119195708Y-48439617D01*
X119187990Y-48438472D01*
X119180422Y-48436577D01*
X119173077Y-48433948D01*
X119166024Y-48430613D01*
X119159332Y-48426602D01*
X119153066Y-48421954D01*
X119147285Y-48416715D01*
X119142046Y-48410934D01*
X119137398Y-48404668D01*
X119133387Y-48397976D01*
X119130052Y-48390923D01*
X119127423Y-48383578D01*
X119125528Y-48376010D01*
X119124383Y-48368292D01*
X119124000Y-48360500D01*
X119124000Y-48159500D01*
X119124383Y-48151708D01*
X119125528Y-48143990D01*
X119127423Y-48136422D01*
X119130052Y-48129077D01*
X119133387Y-48122024D01*
X119137398Y-48115332D01*
X119142046Y-48109066D01*
X119147285Y-48103285D01*
X119153066Y-48098046D01*
X119159332Y-48093398D01*
X119166024Y-48089387D01*
X119173077Y-48086052D01*
X119180422Y-48083423D01*
X119187990Y-48081528D01*
X119195708Y-48080383D01*
X119203500Y-48080000D01*
X119362500Y-48080000D01*
X119370292Y-48080383D01*
G37*
G36*
X118680292Y-48080383D02*
G01*
X118688010Y-48081528D01*
X118695578Y-48083423D01*
X118702923Y-48086052D01*
X118709976Y-48089387D01*
X118716668Y-48093398D01*
X118722934Y-48098046D01*
X118728715Y-48103285D01*
X118733954Y-48109066D01*
X118738602Y-48115332D01*
X118742613Y-48122024D01*
X118745948Y-48129077D01*
X118748577Y-48136422D01*
X118750472Y-48143990D01*
X118751617Y-48151708D01*
X118752000Y-48159500D01*
X118752000Y-48360500D01*
X118751617Y-48368292D01*
X118750472Y-48376010D01*
X118748577Y-48383578D01*
X118745948Y-48390923D01*
X118742613Y-48397976D01*
X118738602Y-48404668D01*
X118733954Y-48410934D01*
X118728715Y-48416715D01*
X118722934Y-48421954D01*
X118716668Y-48426602D01*
X118709976Y-48430613D01*
X118702923Y-48433948D01*
X118695578Y-48436577D01*
X118688010Y-48438472D01*
X118680292Y-48439617D01*
X118672500Y-48440000D01*
X118513500Y-48440000D01*
X118505708Y-48439617D01*
X118497990Y-48438472D01*
X118490422Y-48436577D01*
X118483077Y-48433948D01*
X118476024Y-48430613D01*
X118469332Y-48426602D01*
X118463066Y-48421954D01*
X118457285Y-48416715D01*
X118452046Y-48410934D01*
X118447398Y-48404668D01*
X118443387Y-48397976D01*
X118440052Y-48390923D01*
X118437423Y-48383578D01*
X118435528Y-48376010D01*
X118434383Y-48368292D01*
X118434000Y-48360500D01*
X118434000Y-48159500D01*
X118434383Y-48151708D01*
X118435528Y-48143990D01*
X118437423Y-48136422D01*
X118440052Y-48129077D01*
X118443387Y-48122024D01*
X118447398Y-48115332D01*
X118452046Y-48109066D01*
X118457285Y-48103285D01*
X118463066Y-48098046D01*
X118469332Y-48093398D01*
X118476024Y-48089387D01*
X118483077Y-48086052D01*
X118490422Y-48083423D01*
X118497990Y-48081528D01*
X118505708Y-48080383D01*
X118513500Y-48080000D01*
X118672500Y-48080000D01*
X118680292Y-48080383D01*
G37*
G36*
X140458292Y-43762383D02*
G01*
X140466010Y-43763528D01*
X140473578Y-43765423D01*
X140480923Y-43768052D01*
X140487976Y-43771387D01*
X140494668Y-43775398D01*
X140500934Y-43780046D01*
X140506715Y-43785285D01*
X140511954Y-43791066D01*
X140516602Y-43797332D01*
X140520613Y-43804024D01*
X140523948Y-43811077D01*
X140526577Y-43818422D01*
X140528472Y-43825990D01*
X140529617Y-43833708D01*
X140530000Y-43841500D01*
X140530000Y-44042500D01*
X140529617Y-44050292D01*
X140528472Y-44058010D01*
X140526577Y-44065578D01*
X140523948Y-44072923D01*
X140520613Y-44079976D01*
X140516602Y-44086668D01*
X140511954Y-44092934D01*
X140506715Y-44098715D01*
X140500934Y-44103954D01*
X140494668Y-44108602D01*
X140487976Y-44112613D01*
X140480923Y-44115948D01*
X140473578Y-44118577D01*
X140466010Y-44120472D01*
X140458292Y-44121617D01*
X140450500Y-44122000D01*
X140291500Y-44122000D01*
X140283708Y-44121617D01*
X140275990Y-44120472D01*
X140268422Y-44118577D01*
X140261077Y-44115948D01*
X140254024Y-44112613D01*
X140247332Y-44108602D01*
X140241066Y-44103954D01*
X140235285Y-44098715D01*
X140230046Y-44092934D01*
X140225398Y-44086668D01*
X140221387Y-44079976D01*
X140218052Y-44072923D01*
X140215423Y-44065578D01*
X140213528Y-44058010D01*
X140212383Y-44050292D01*
X140212000Y-44042500D01*
X140212000Y-43841500D01*
X140212383Y-43833708D01*
X140213528Y-43825990D01*
X140215423Y-43818422D01*
X140218052Y-43811077D01*
X140221387Y-43804024D01*
X140225398Y-43797332D01*
X140230046Y-43791066D01*
X140235285Y-43785285D01*
X140241066Y-43780046D01*
X140247332Y-43775398D01*
X140254024Y-43771387D01*
X140261077Y-43768052D01*
X140268422Y-43765423D01*
X140275990Y-43763528D01*
X140283708Y-43762383D01*
X140291500Y-43762000D01*
X140450500Y-43762000D01*
X140458292Y-43762383D01*
G37*
G36*
X141148292Y-43762383D02*
G01*
X141156010Y-43763528D01*
X141163578Y-43765423D01*
X141170923Y-43768052D01*
X141177976Y-43771387D01*
X141184668Y-43775398D01*
X141190934Y-43780046D01*
X141196715Y-43785285D01*
X141201954Y-43791066D01*
X141206602Y-43797332D01*
X141210613Y-43804024D01*
X141213948Y-43811077D01*
X141216577Y-43818422D01*
X141218472Y-43825990D01*
X141219617Y-43833708D01*
X141220000Y-43841500D01*
X141220000Y-44042500D01*
X141219617Y-44050292D01*
X141218472Y-44058010D01*
X141216577Y-44065578D01*
X141213948Y-44072923D01*
X141210613Y-44079976D01*
X141206602Y-44086668D01*
X141201954Y-44092934D01*
X141196715Y-44098715D01*
X141190934Y-44103954D01*
X141184668Y-44108602D01*
X141177976Y-44112613D01*
X141170923Y-44115948D01*
X141163578Y-44118577D01*
X141156010Y-44120472D01*
X141148292Y-44121617D01*
X141140500Y-44122000D01*
X140981500Y-44122000D01*
X140973708Y-44121617D01*
X140965990Y-44120472D01*
X140958422Y-44118577D01*
X140951077Y-44115948D01*
X140944024Y-44112613D01*
X140937332Y-44108602D01*
X140931066Y-44103954D01*
X140925285Y-44098715D01*
X140920046Y-44092934D01*
X140915398Y-44086668D01*
X140911387Y-44079976D01*
X140908052Y-44072923D01*
X140905423Y-44065578D01*
X140903528Y-44058010D01*
X140902383Y-44050292D01*
X140902000Y-44042500D01*
X140902000Y-43841500D01*
X140902383Y-43833708D01*
X140903528Y-43825990D01*
X140905423Y-43818422D01*
X140908052Y-43811077D01*
X140911387Y-43804024D01*
X140915398Y-43797332D01*
X140920046Y-43791066D01*
X140925285Y-43785285D01*
X140931066Y-43780046D01*
X140937332Y-43775398D01*
X140944024Y-43771387D01*
X140951077Y-43768052D01*
X140958422Y-43765423D01*
X140965990Y-43763528D01*
X140973708Y-43762383D01*
X140981500Y-43762000D01*
X141140500Y-43762000D01*
X141148292Y-43762383D01*
G37*
G36*
X140458292Y-48588383D02*
G01*
X140466010Y-48589528D01*
X140473578Y-48591423D01*
X140480923Y-48594052D01*
X140487976Y-48597387D01*
X140494668Y-48601398D01*
X140500934Y-48606046D01*
X140506715Y-48611285D01*
X140511954Y-48617066D01*
X140516602Y-48623332D01*
X140520613Y-48630024D01*
X140523948Y-48637077D01*
X140526577Y-48644422D01*
X140528472Y-48651990D01*
X140529617Y-48659708D01*
X140530000Y-48667500D01*
X140530000Y-48868500D01*
X140529617Y-48876292D01*
X140528472Y-48884010D01*
X140526577Y-48891578D01*
X140523948Y-48898923D01*
X140520613Y-48905976D01*
X140516602Y-48912668D01*
X140511954Y-48918934D01*
X140506715Y-48924715D01*
X140500934Y-48929954D01*
X140494668Y-48934602D01*
X140487976Y-48938613D01*
X140480923Y-48941948D01*
X140473578Y-48944577D01*
X140466010Y-48946472D01*
X140458292Y-48947617D01*
X140450500Y-48948000D01*
X140291500Y-48948000D01*
X140283708Y-48947617D01*
X140275990Y-48946472D01*
X140268422Y-48944577D01*
X140261077Y-48941948D01*
X140254024Y-48938613D01*
X140247332Y-48934602D01*
X140241066Y-48929954D01*
X140235285Y-48924715D01*
X140230046Y-48918934D01*
X140225398Y-48912668D01*
X140221387Y-48905976D01*
X140218052Y-48898923D01*
X140215423Y-48891578D01*
X140213528Y-48884010D01*
X140212383Y-48876292D01*
X140212000Y-48868500D01*
X140212000Y-48667500D01*
X140212383Y-48659708D01*
X140213528Y-48651990D01*
X140215423Y-48644422D01*
X140218052Y-48637077D01*
X140221387Y-48630024D01*
X140225398Y-48623332D01*
X140230046Y-48617066D01*
X140235285Y-48611285D01*
X140241066Y-48606046D01*
X140247332Y-48601398D01*
X140254024Y-48597387D01*
X140261077Y-48594052D01*
X140268422Y-48591423D01*
X140275990Y-48589528D01*
X140283708Y-48588383D01*
X140291500Y-48588000D01*
X140450500Y-48588000D01*
X140458292Y-48588383D01*
G37*
G36*
X141148292Y-48588383D02*
G01*
X141156010Y-48589528D01*
X141163578Y-48591423D01*
X141170923Y-48594052D01*
X141177976Y-48597387D01*
X141184668Y-48601398D01*
X141190934Y-48606046D01*
X141196715Y-48611285D01*
X141201954Y-48617066D01*
X141206602Y-48623332D01*
X141210613Y-48630024D01*
X141213948Y-48637077D01*
X141216577Y-48644422D01*
X141218472Y-48651990D01*
X141219617Y-48659708D01*
X141220000Y-48667500D01*
X141220000Y-48868500D01*
X141219617Y-48876292D01*
X141218472Y-48884010D01*
X141216577Y-48891578D01*
X141213948Y-48898923D01*
X141210613Y-48905976D01*
X141206602Y-48912668D01*
X141201954Y-48918934D01*
X141196715Y-48924715D01*
X141190934Y-48929954D01*
X141184668Y-48934602D01*
X141177976Y-48938613D01*
X141170923Y-48941948D01*
X141163578Y-48944577D01*
X141156010Y-48946472D01*
X141148292Y-48947617D01*
X141140500Y-48948000D01*
X140981500Y-48948000D01*
X140973708Y-48947617D01*
X140965990Y-48946472D01*
X140958422Y-48944577D01*
X140951077Y-48941948D01*
X140944024Y-48938613D01*
X140937332Y-48934602D01*
X140931066Y-48929954D01*
X140925285Y-48924715D01*
X140920046Y-48918934D01*
X140915398Y-48912668D01*
X140911387Y-48905976D01*
X140908052Y-48898923D01*
X140905423Y-48891578D01*
X140903528Y-48884010D01*
X140902383Y-48876292D01*
X140902000Y-48868500D01*
X140902000Y-48667500D01*
X140902383Y-48659708D01*
X140903528Y-48651990D01*
X140905423Y-48644422D01*
X140908052Y-48637077D01*
X140911387Y-48630024D01*
X140915398Y-48623332D01*
X140920046Y-48617066D01*
X140925285Y-48611285D01*
X140931066Y-48606046D01*
X140937332Y-48601398D01*
X140944024Y-48597387D01*
X140951077Y-48594052D01*
X140958422Y-48591423D01*
X140965990Y-48589528D01*
X140973708Y-48588383D01*
X140981500Y-48588000D01*
X141140500Y-48588000D01*
X141148292Y-48588383D01*
G37*
G36*
X163572292Y-44270383D02*
G01*
X163580010Y-44271528D01*
X163587578Y-44273423D01*
X163594923Y-44276052D01*
X163601976Y-44279387D01*
X163608668Y-44283398D01*
X163614934Y-44288046D01*
X163620715Y-44293285D01*
X163625954Y-44299066D01*
X163630602Y-44305332D01*
X163634613Y-44312024D01*
X163637948Y-44319077D01*
X163640577Y-44326422D01*
X163642472Y-44333990D01*
X163643617Y-44341708D01*
X163644000Y-44349500D01*
X163644000Y-44550500D01*
X163643617Y-44558292D01*
X163642472Y-44566010D01*
X163640577Y-44573578D01*
X163637948Y-44580923D01*
X163634613Y-44587976D01*
X163630602Y-44594668D01*
X163625954Y-44600934D01*
X163620715Y-44606715D01*
X163614934Y-44611954D01*
X163608668Y-44616602D01*
X163601976Y-44620613D01*
X163594923Y-44623948D01*
X163587578Y-44626577D01*
X163580010Y-44628472D01*
X163572292Y-44629617D01*
X163564500Y-44630000D01*
X163405500Y-44630000D01*
X163397708Y-44629617D01*
X163389990Y-44628472D01*
X163382422Y-44626577D01*
X163375077Y-44623948D01*
X163368024Y-44620613D01*
X163361332Y-44616602D01*
X163355066Y-44611954D01*
X163349285Y-44606715D01*
X163344046Y-44600934D01*
X163339398Y-44594668D01*
X163335387Y-44587976D01*
X163332052Y-44580923D01*
X163329423Y-44573578D01*
X163327528Y-44566010D01*
X163326383Y-44558292D01*
X163326000Y-44550500D01*
X163326000Y-44349500D01*
X163326383Y-44341708D01*
X163327528Y-44333990D01*
X163329423Y-44326422D01*
X163332052Y-44319077D01*
X163335387Y-44312024D01*
X163339398Y-44305332D01*
X163344046Y-44299066D01*
X163349285Y-44293285D01*
X163355066Y-44288046D01*
X163361332Y-44283398D01*
X163368024Y-44279387D01*
X163375077Y-44276052D01*
X163382422Y-44273423D01*
X163389990Y-44271528D01*
X163397708Y-44270383D01*
X163405500Y-44270000D01*
X163564500Y-44270000D01*
X163572292Y-44270383D01*
G37*
G36*
X164262292Y-44270383D02*
G01*
X164270010Y-44271528D01*
X164277578Y-44273423D01*
X164284923Y-44276052D01*
X164291976Y-44279387D01*
X164298668Y-44283398D01*
X164304934Y-44288046D01*
X164310715Y-44293285D01*
X164315954Y-44299066D01*
X164320602Y-44305332D01*
X164324613Y-44312024D01*
X164327948Y-44319077D01*
X164330577Y-44326422D01*
X164332472Y-44333990D01*
X164333617Y-44341708D01*
X164334000Y-44349500D01*
X164334000Y-44550500D01*
X164333617Y-44558292D01*
X164332472Y-44566010D01*
X164330577Y-44573578D01*
X164327948Y-44580923D01*
X164324613Y-44587976D01*
X164320602Y-44594668D01*
X164315954Y-44600934D01*
X164310715Y-44606715D01*
X164304934Y-44611954D01*
X164298668Y-44616602D01*
X164291976Y-44620613D01*
X164284923Y-44623948D01*
X164277578Y-44626577D01*
X164270010Y-44628472D01*
X164262292Y-44629617D01*
X164254500Y-44630000D01*
X164095500Y-44630000D01*
X164087708Y-44629617D01*
X164079990Y-44628472D01*
X164072422Y-44626577D01*
X164065077Y-44623948D01*
X164058024Y-44620613D01*
X164051332Y-44616602D01*
X164045066Y-44611954D01*
X164039285Y-44606715D01*
X164034046Y-44600934D01*
X164029398Y-44594668D01*
X164025387Y-44587976D01*
X164022052Y-44580923D01*
X164019423Y-44573578D01*
X164017528Y-44566010D01*
X164016383Y-44558292D01*
X164016000Y-44550500D01*
X164016000Y-44349500D01*
X164016383Y-44341708D01*
X164017528Y-44333990D01*
X164019423Y-44326422D01*
X164022052Y-44319077D01*
X164025387Y-44312024D01*
X164029398Y-44305332D01*
X164034046Y-44299066D01*
X164039285Y-44293285D01*
X164045066Y-44288046D01*
X164051332Y-44283398D01*
X164058024Y-44279387D01*
X164065077Y-44276052D01*
X164072422Y-44273423D01*
X164079990Y-44271528D01*
X164087708Y-44270383D01*
X164095500Y-44270000D01*
X164254500Y-44270000D01*
X164262292Y-44270383D01*
G37*
G36*
X164262292Y-48080383D02*
G01*
X164270010Y-48081528D01*
X164277578Y-48083423D01*
X164284923Y-48086052D01*
X164291976Y-48089387D01*
X164298668Y-48093398D01*
X164304934Y-48098046D01*
X164310715Y-48103285D01*
X164315954Y-48109066D01*
X164320602Y-48115332D01*
X164324613Y-48122024D01*
X164327948Y-48129077D01*
X164330577Y-48136422D01*
X164332472Y-48143990D01*
X164333617Y-48151708D01*
X164334000Y-48159500D01*
X164334000Y-48360500D01*
X164333617Y-48368292D01*
X164332472Y-48376010D01*
X164330577Y-48383578D01*
X164327948Y-48390923D01*
X164324613Y-48397976D01*
X164320602Y-48404668D01*
X164315954Y-48410934D01*
X164310715Y-48416715D01*
X164304934Y-48421954D01*
X164298668Y-48426602D01*
X164291976Y-48430613D01*
X164284923Y-48433948D01*
X164277578Y-48436577D01*
X164270010Y-48438472D01*
X164262292Y-48439617D01*
X164254500Y-48440000D01*
X164095500Y-48440000D01*
X164087708Y-48439617D01*
X164079990Y-48438472D01*
X164072422Y-48436577D01*
X164065077Y-48433948D01*
X164058024Y-48430613D01*
X164051332Y-48426602D01*
X164045066Y-48421954D01*
X164039285Y-48416715D01*
X164034046Y-48410934D01*
X164029398Y-48404668D01*
X164025387Y-48397976D01*
X164022052Y-48390923D01*
X164019423Y-48383578D01*
X164017528Y-48376010D01*
X164016383Y-48368292D01*
X164016000Y-48360500D01*
X164016000Y-48159500D01*
X164016383Y-48151708D01*
X164017528Y-48143990D01*
X164019423Y-48136422D01*
X164022052Y-48129077D01*
X164025387Y-48122024D01*
X164029398Y-48115332D01*
X164034046Y-48109066D01*
X164039285Y-48103285D01*
X164045066Y-48098046D01*
X164051332Y-48093398D01*
X164058024Y-48089387D01*
X164065077Y-48086052D01*
X164072422Y-48083423D01*
X164079990Y-48081528D01*
X164087708Y-48080383D01*
X164095500Y-48080000D01*
X164254500Y-48080000D01*
X164262292Y-48080383D01*
G37*
G36*
X163572292Y-48080383D02*
G01*
X163580010Y-48081528D01*
X163587578Y-48083423D01*
X163594923Y-48086052D01*
X163601976Y-48089387D01*
X163608668Y-48093398D01*
X163614934Y-48098046D01*
X163620715Y-48103285D01*
X163625954Y-48109066D01*
X163630602Y-48115332D01*
X163634613Y-48122024D01*
X163637948Y-48129077D01*
X163640577Y-48136422D01*
X163642472Y-48143990D01*
X163643617Y-48151708D01*
X163644000Y-48159500D01*
X163644000Y-48360500D01*
X163643617Y-48368292D01*
X163642472Y-48376010D01*
X163640577Y-48383578D01*
X163637948Y-48390923D01*
X163634613Y-48397976D01*
X163630602Y-48404668D01*
X163625954Y-48410934D01*
X163620715Y-48416715D01*
X163614934Y-48421954D01*
X163608668Y-48426602D01*
X163601976Y-48430613D01*
X163594923Y-48433948D01*
X163587578Y-48436577D01*
X163580010Y-48438472D01*
X163572292Y-48439617D01*
X163564500Y-48440000D01*
X163405500Y-48440000D01*
X163397708Y-48439617D01*
X163389990Y-48438472D01*
X163382422Y-48436577D01*
X163375077Y-48433948D01*
X163368024Y-48430613D01*
X163361332Y-48426602D01*
X163355066Y-48421954D01*
X163349285Y-48416715D01*
X163344046Y-48410934D01*
X163339398Y-48404668D01*
X163335387Y-48397976D01*
X163332052Y-48390923D01*
X163329423Y-48383578D01*
X163327528Y-48376010D01*
X163326383Y-48368292D01*
X163326000Y-48360500D01*
X163326000Y-48159500D01*
X163326383Y-48151708D01*
X163327528Y-48143990D01*
X163329423Y-48136422D01*
X163332052Y-48129077D01*
X163335387Y-48122024D01*
X163339398Y-48115332D01*
X163344046Y-48109066D01*
X163349285Y-48103285D01*
X163355066Y-48098046D01*
X163361332Y-48093398D01*
X163368024Y-48089387D01*
X163375077Y-48086052D01*
X163382422Y-48083423D01*
X163389990Y-48081528D01*
X163397708Y-48080383D01*
X163405500Y-48080000D01*
X163564500Y-48080000D01*
X163572292Y-48080383D01*
G37*
G36*
X185410292Y-44524383D02*
G01*
X185418010Y-44525528D01*
X185425578Y-44527423D01*
X185432923Y-44530052D01*
X185439976Y-44533387D01*
X185446668Y-44537398D01*
X185452934Y-44542046D01*
X185458715Y-44547285D01*
X185463954Y-44553066D01*
X185468602Y-44559332D01*
X185472613Y-44566024D01*
X185475948Y-44573077D01*
X185478577Y-44580422D01*
X185480472Y-44587990D01*
X185481617Y-44595708D01*
X185482000Y-44603500D01*
X185482000Y-44804500D01*
X185481617Y-44812292D01*
X185480472Y-44820010D01*
X185478577Y-44827578D01*
X185475948Y-44834923D01*
X185472613Y-44841976D01*
X185468602Y-44848668D01*
X185463954Y-44854934D01*
X185458715Y-44860715D01*
X185452934Y-44865954D01*
X185446668Y-44870602D01*
X185439976Y-44874613D01*
X185432923Y-44877948D01*
X185425578Y-44880577D01*
X185418010Y-44882472D01*
X185410292Y-44883617D01*
X185402500Y-44884000D01*
X185243500Y-44884000D01*
X185235708Y-44883617D01*
X185227990Y-44882472D01*
X185220422Y-44880577D01*
X185213077Y-44877948D01*
X185206024Y-44874613D01*
X185199332Y-44870602D01*
X185193066Y-44865954D01*
X185187285Y-44860715D01*
X185182046Y-44854934D01*
X185177398Y-44848668D01*
X185173387Y-44841976D01*
X185170052Y-44834923D01*
X185167423Y-44827578D01*
X185165528Y-44820010D01*
X185164383Y-44812292D01*
X185164000Y-44804500D01*
X185164000Y-44603500D01*
X185164383Y-44595708D01*
X185165528Y-44587990D01*
X185167423Y-44580422D01*
X185170052Y-44573077D01*
X185173387Y-44566024D01*
X185177398Y-44559332D01*
X185182046Y-44553066D01*
X185187285Y-44547285D01*
X185193066Y-44542046D01*
X185199332Y-44537398D01*
X185206024Y-44533387D01*
X185213077Y-44530052D01*
X185220422Y-44527423D01*
X185227990Y-44525528D01*
X185235708Y-44524383D01*
X185243500Y-44524000D01*
X185402500Y-44524000D01*
X185410292Y-44524383D01*
G37*
G36*
X184720292Y-44524383D02*
G01*
X184728010Y-44525528D01*
X184735578Y-44527423D01*
X184742923Y-44530052D01*
X184749976Y-44533387D01*
X184756668Y-44537398D01*
X184762934Y-44542046D01*
X184768715Y-44547285D01*
X184773954Y-44553066D01*
X184778602Y-44559332D01*
X184782613Y-44566024D01*
X184785948Y-44573077D01*
X184788577Y-44580422D01*
X184790472Y-44587990D01*
X184791617Y-44595708D01*
X184792000Y-44603500D01*
X184792000Y-44804500D01*
X184791617Y-44812292D01*
X184790472Y-44820010D01*
X184788577Y-44827578D01*
X184785948Y-44834923D01*
X184782613Y-44841976D01*
X184778602Y-44848668D01*
X184773954Y-44854934D01*
X184768715Y-44860715D01*
X184762934Y-44865954D01*
X184756668Y-44870602D01*
X184749976Y-44874613D01*
X184742923Y-44877948D01*
X184735578Y-44880577D01*
X184728010Y-44882472D01*
X184720292Y-44883617D01*
X184712500Y-44884000D01*
X184553500Y-44884000D01*
X184545708Y-44883617D01*
X184537990Y-44882472D01*
X184530422Y-44880577D01*
X184523077Y-44877948D01*
X184516024Y-44874613D01*
X184509332Y-44870602D01*
X184503066Y-44865954D01*
X184497285Y-44860715D01*
X184492046Y-44854934D01*
X184487398Y-44848668D01*
X184483387Y-44841976D01*
X184480052Y-44834923D01*
X184477423Y-44827578D01*
X184475528Y-44820010D01*
X184474383Y-44812292D01*
X184474000Y-44804500D01*
X184474000Y-44603500D01*
X184474383Y-44595708D01*
X184475528Y-44587990D01*
X184477423Y-44580422D01*
X184480052Y-44573077D01*
X184483387Y-44566024D01*
X184487398Y-44559332D01*
X184492046Y-44553066D01*
X184497285Y-44547285D01*
X184503066Y-44542046D01*
X184509332Y-44537398D01*
X184516024Y-44533387D01*
X184523077Y-44530052D01*
X184530422Y-44527423D01*
X184537990Y-44525528D01*
X184545708Y-44524383D01*
X184553500Y-44524000D01*
X184712500Y-44524000D01*
X184720292Y-44524383D01*
G37*
G36*
X184745292Y-48334383D02*
G01*
X184753010Y-48335528D01*
X184760578Y-48337423D01*
X184767923Y-48340052D01*
X184774976Y-48343387D01*
X184781668Y-48347398D01*
X184787934Y-48352046D01*
X184793715Y-48357285D01*
X184798954Y-48363066D01*
X184803602Y-48369332D01*
X184807613Y-48376024D01*
X184810948Y-48383077D01*
X184813577Y-48390422D01*
X184815472Y-48397990D01*
X184816617Y-48405708D01*
X184817000Y-48413500D01*
X184817000Y-48614500D01*
X184816617Y-48622292D01*
X184815472Y-48630010D01*
X184813577Y-48637578D01*
X184810948Y-48644923D01*
X184807613Y-48651976D01*
X184803602Y-48658668D01*
X184798954Y-48664934D01*
X184793715Y-48670715D01*
X184787934Y-48675954D01*
X184781668Y-48680602D01*
X184774976Y-48684613D01*
X184767923Y-48687948D01*
X184760578Y-48690577D01*
X184753010Y-48692472D01*
X184745292Y-48693617D01*
X184737500Y-48694000D01*
X184578500Y-48694000D01*
X184570708Y-48693617D01*
X184562990Y-48692472D01*
X184555422Y-48690577D01*
X184548077Y-48687948D01*
X184541024Y-48684613D01*
X184534332Y-48680602D01*
X184528066Y-48675954D01*
X184522285Y-48670715D01*
X184517046Y-48664934D01*
X184512398Y-48658668D01*
X184508387Y-48651976D01*
X184505052Y-48644923D01*
X184502423Y-48637578D01*
X184500528Y-48630010D01*
X184499383Y-48622292D01*
X184499000Y-48614500D01*
X184499000Y-48413500D01*
X184499383Y-48405708D01*
X184500528Y-48397990D01*
X184502423Y-48390422D01*
X184505052Y-48383077D01*
X184508387Y-48376024D01*
X184512398Y-48369332D01*
X184517046Y-48363066D01*
X184522285Y-48357285D01*
X184528066Y-48352046D01*
X184534332Y-48347398D01*
X184541024Y-48343387D01*
X184548077Y-48340052D01*
X184555422Y-48337423D01*
X184562990Y-48335528D01*
X184570708Y-48334383D01*
X184578500Y-48334000D01*
X184737500Y-48334000D01*
X184745292Y-48334383D01*
G37*
G36*
X185435292Y-48334383D02*
G01*
X185443010Y-48335528D01*
X185450578Y-48337423D01*
X185457923Y-48340052D01*
X185464976Y-48343387D01*
X185471668Y-48347398D01*
X185477934Y-48352046D01*
X185483715Y-48357285D01*
X185488954Y-48363066D01*
X185493602Y-48369332D01*
X185497613Y-48376024D01*
X185500948Y-48383077D01*
X185503577Y-48390422D01*
X185505472Y-48397990D01*
X185506617Y-48405708D01*
X185507000Y-48413500D01*
X185507000Y-48614500D01*
X185506617Y-48622292D01*
X185505472Y-48630010D01*
X185503577Y-48637578D01*
X185500948Y-48644923D01*
X185497613Y-48651976D01*
X185493602Y-48658668D01*
X185488954Y-48664934D01*
X185483715Y-48670715D01*
X185477934Y-48675954D01*
X185471668Y-48680602D01*
X185464976Y-48684613D01*
X185457923Y-48687948D01*
X185450578Y-48690577D01*
X185443010Y-48692472D01*
X185435292Y-48693617D01*
X185427500Y-48694000D01*
X185268500Y-48694000D01*
X185260708Y-48693617D01*
X185252990Y-48692472D01*
X185245422Y-48690577D01*
X185238077Y-48687948D01*
X185231024Y-48684613D01*
X185224332Y-48680602D01*
X185218066Y-48675954D01*
X185212285Y-48670715D01*
X185207046Y-48664934D01*
X185202398Y-48658668D01*
X185198387Y-48651976D01*
X185195052Y-48644923D01*
X185192423Y-48637578D01*
X185190528Y-48630010D01*
X185189383Y-48622292D01*
X185189000Y-48614500D01*
X185189000Y-48413500D01*
X185189383Y-48405708D01*
X185190528Y-48397990D01*
X185192423Y-48390422D01*
X185195052Y-48383077D01*
X185198387Y-48376024D01*
X185202398Y-48369332D01*
X185207046Y-48363066D01*
X185212285Y-48357285D01*
X185218066Y-48352046D01*
X185224332Y-48347398D01*
X185231024Y-48343387D01*
X185238077Y-48340052D01*
X185245422Y-48337423D01*
X185252990Y-48335528D01*
X185260708Y-48334383D01*
X185268500Y-48334000D01*
X185427500Y-48334000D01*
X185435292Y-48334383D01*
G37*
G36*
X207006292Y-45032383D02*
G01*
X207014010Y-45033528D01*
X207021578Y-45035423D01*
X207028923Y-45038052D01*
X207035976Y-45041387D01*
X207042668Y-45045398D01*
X207048934Y-45050046D01*
X207054715Y-45055285D01*
X207059954Y-45061066D01*
X207064602Y-45067332D01*
X207068613Y-45074024D01*
X207071948Y-45081077D01*
X207074577Y-45088422D01*
X207076472Y-45095990D01*
X207077617Y-45103708D01*
X207078000Y-45111500D01*
X207078000Y-45312500D01*
X207077617Y-45320292D01*
X207076472Y-45328010D01*
X207074577Y-45335578D01*
X207071948Y-45342923D01*
X207068613Y-45349976D01*
X207064602Y-45356668D01*
X207059954Y-45362934D01*
X207054715Y-45368715D01*
X207048934Y-45373954D01*
X207042668Y-45378602D01*
X207035976Y-45382613D01*
X207028923Y-45385948D01*
X207021578Y-45388577D01*
X207014010Y-45390472D01*
X207006292Y-45391617D01*
X206998500Y-45392000D01*
X206839500Y-45392000D01*
X206831708Y-45391617D01*
X206823990Y-45390472D01*
X206816422Y-45388577D01*
X206809077Y-45385948D01*
X206802024Y-45382613D01*
X206795332Y-45378602D01*
X206789066Y-45373954D01*
X206783285Y-45368715D01*
X206778046Y-45362934D01*
X206773398Y-45356668D01*
X206769387Y-45349976D01*
X206766052Y-45342923D01*
X206763423Y-45335578D01*
X206761528Y-45328010D01*
X206760383Y-45320292D01*
X206760000Y-45312500D01*
X206760000Y-45111500D01*
X206760383Y-45103708D01*
X206761528Y-45095990D01*
X206763423Y-45088422D01*
X206766052Y-45081077D01*
X206769387Y-45074024D01*
X206773398Y-45067332D01*
X206778046Y-45061066D01*
X206783285Y-45055285D01*
X206789066Y-45050046D01*
X206795332Y-45045398D01*
X206802024Y-45041387D01*
X206809077Y-45038052D01*
X206816422Y-45035423D01*
X206823990Y-45033528D01*
X206831708Y-45032383D01*
X206839500Y-45032000D01*
X206998500Y-45032000D01*
X207006292Y-45032383D01*
G37*
G36*
X207696292Y-45032383D02*
G01*
X207704010Y-45033528D01*
X207711578Y-45035423D01*
X207718923Y-45038052D01*
X207725976Y-45041387D01*
X207732668Y-45045398D01*
X207738934Y-45050046D01*
X207744715Y-45055285D01*
X207749954Y-45061066D01*
X207754602Y-45067332D01*
X207758613Y-45074024D01*
X207761948Y-45081077D01*
X207764577Y-45088422D01*
X207766472Y-45095990D01*
X207767617Y-45103708D01*
X207768000Y-45111500D01*
X207768000Y-45312500D01*
X207767617Y-45320292D01*
X207766472Y-45328010D01*
X207764577Y-45335578D01*
X207761948Y-45342923D01*
X207758613Y-45349976D01*
X207754602Y-45356668D01*
X207749954Y-45362934D01*
X207744715Y-45368715D01*
X207738934Y-45373954D01*
X207732668Y-45378602D01*
X207725976Y-45382613D01*
X207718923Y-45385948D01*
X207711578Y-45388577D01*
X207704010Y-45390472D01*
X207696292Y-45391617D01*
X207688500Y-45392000D01*
X207529500Y-45392000D01*
X207521708Y-45391617D01*
X207513990Y-45390472D01*
X207506422Y-45388577D01*
X207499077Y-45385948D01*
X207492024Y-45382613D01*
X207485332Y-45378602D01*
X207479066Y-45373954D01*
X207473285Y-45368715D01*
X207468046Y-45362934D01*
X207463398Y-45356668D01*
X207459387Y-45349976D01*
X207456052Y-45342923D01*
X207453423Y-45335578D01*
X207451528Y-45328010D01*
X207450383Y-45320292D01*
X207450000Y-45312500D01*
X207450000Y-45111500D01*
X207450383Y-45103708D01*
X207451528Y-45095990D01*
X207453423Y-45088422D01*
X207456052Y-45081077D01*
X207459387Y-45074024D01*
X207463398Y-45067332D01*
X207468046Y-45061066D01*
X207473285Y-45055285D01*
X207479066Y-45050046D01*
X207485332Y-45045398D01*
X207492024Y-45041387D01*
X207499077Y-45038052D01*
X207506422Y-45035423D01*
X207513990Y-45033528D01*
X207521708Y-45032383D01*
X207529500Y-45032000D01*
X207688500Y-45032000D01*
X207696292Y-45032383D01*
G37*
G36*
X207696292Y-48842383D02*
G01*
X207704010Y-48843528D01*
X207711578Y-48845423D01*
X207718923Y-48848052D01*
X207725976Y-48851387D01*
X207732668Y-48855398D01*
X207738934Y-48860046D01*
X207744715Y-48865285D01*
X207749954Y-48871066D01*
X207754602Y-48877332D01*
X207758613Y-48884024D01*
X207761948Y-48891077D01*
X207764577Y-48898422D01*
X207766472Y-48905990D01*
X207767617Y-48913708D01*
X207768000Y-48921500D01*
X207768000Y-49122500D01*
X207767617Y-49130292D01*
X207766472Y-49138010D01*
X207764577Y-49145578D01*
X207761948Y-49152923D01*
X207758613Y-49159976D01*
X207754602Y-49166668D01*
X207749954Y-49172934D01*
X207744715Y-49178715D01*
X207738934Y-49183954D01*
X207732668Y-49188602D01*
X207725976Y-49192613D01*
X207718923Y-49195948D01*
X207711578Y-49198577D01*
X207704010Y-49200472D01*
X207696292Y-49201617D01*
X207688500Y-49202000D01*
X207529500Y-49202000D01*
X207521708Y-49201617D01*
X207513990Y-49200472D01*
X207506422Y-49198577D01*
X207499077Y-49195948D01*
X207492024Y-49192613D01*
X207485332Y-49188602D01*
X207479066Y-49183954D01*
X207473285Y-49178715D01*
X207468046Y-49172934D01*
X207463398Y-49166668D01*
X207459387Y-49159976D01*
X207456052Y-49152923D01*
X207453423Y-49145578D01*
X207451528Y-49138010D01*
X207450383Y-49130292D01*
X207450000Y-49122500D01*
X207450000Y-48921500D01*
X207450383Y-48913708D01*
X207451528Y-48905990D01*
X207453423Y-48898422D01*
X207456052Y-48891077D01*
X207459387Y-48884024D01*
X207463398Y-48877332D01*
X207468046Y-48871066D01*
X207473285Y-48865285D01*
X207479066Y-48860046D01*
X207485332Y-48855398D01*
X207492024Y-48851387D01*
X207499077Y-48848052D01*
X207506422Y-48845423D01*
X207513990Y-48843528D01*
X207521708Y-48842383D01*
X207529500Y-48842000D01*
X207688500Y-48842000D01*
X207696292Y-48842383D01*
G37*
G36*
X207006292Y-48842383D02*
G01*
X207014010Y-48843528D01*
X207021578Y-48845423D01*
X207028923Y-48848052D01*
X207035976Y-48851387D01*
X207042668Y-48855398D01*
X207048934Y-48860046D01*
X207054715Y-48865285D01*
X207059954Y-48871066D01*
X207064602Y-48877332D01*
X207068613Y-48884024D01*
X207071948Y-48891077D01*
X207074577Y-48898422D01*
X207076472Y-48905990D01*
X207077617Y-48913708D01*
X207078000Y-48921500D01*
X207078000Y-49122500D01*
X207077617Y-49130292D01*
X207076472Y-49138010D01*
X207074577Y-49145578D01*
X207071948Y-49152923D01*
X207068613Y-49159976D01*
X207064602Y-49166668D01*
X207059954Y-49172934D01*
X207054715Y-49178715D01*
X207048934Y-49183954D01*
X207042668Y-49188602D01*
X207035976Y-49192613D01*
X207028923Y-49195948D01*
X207021578Y-49198577D01*
X207014010Y-49200472D01*
X207006292Y-49201617D01*
X206998500Y-49202000D01*
X206839500Y-49202000D01*
X206831708Y-49201617D01*
X206823990Y-49200472D01*
X206816422Y-49198577D01*
X206809077Y-49195948D01*
X206802024Y-49192613D01*
X206795332Y-49188602D01*
X206789066Y-49183954D01*
X206783285Y-49178715D01*
X206778046Y-49172934D01*
X206773398Y-49166668D01*
X206769387Y-49159976D01*
X206766052Y-49152923D01*
X206763423Y-49145578D01*
X206761528Y-49138010D01*
X206760383Y-49130292D01*
X206760000Y-49122500D01*
X206760000Y-48921500D01*
X206760383Y-48913708D01*
X206761528Y-48905990D01*
X206763423Y-48898422D01*
X206766052Y-48891077D01*
X206769387Y-48884024D01*
X206773398Y-48877332D01*
X206778046Y-48871066D01*
X206783285Y-48865285D01*
X206789066Y-48860046D01*
X206795332Y-48855398D01*
X206802024Y-48851387D01*
X206809077Y-48848052D01*
X206816422Y-48845423D01*
X206823990Y-48843528D01*
X206831708Y-48842383D01*
X206839500Y-48842000D01*
X206998500Y-48842000D01*
X207006292Y-48842383D01*
G37*
M02*
