M48
; DRILL file {KiCad 5.1.5+dfsg1-2build2} date Sun 13 Dec 2020 03:54:19 PM +04
; FORMAT={-:-/ absolute / inch / decimal}
; #@! TF.CreationDate,2020-12-13T15:54:19+04:00
; #@! TF.GenerationSoftware,Kicad,Pcbnew,5.1.5+dfsg1-2build2
; #@! TF.FileFunction,Plated,1,2,PTH
FMAT,2
INCH
T1C0.0157
T2C0.0374
T3C0.0400
%
G90
G05
T1
X4.69Y-4.23
X4.76Y-2.49
X4.76Y-3.06
X4.81Y-1.9
X5.56Y-3.74
X5.6Y-3.07
X5.65Y-1.92
X5.65Y-2.52
X6.4898Y-3.7402
X6.55Y-1.9
X6.65Y-2.77
X7.38Y-1.91
X7.3878Y-3.7378
X7.47Y-2.75
X7.72Y-2.03
X8.14Y-2.75
X8.16Y-3.89
X8.24Y-1.93
T2
X5.0591Y-3.6124
X5.1575Y-3.6124
X5.2559Y-3.6124
X4.2108Y-3.6048
X4.3092Y-3.6048
X4.4077Y-3.6048
X7.71Y-2.36
X7.8084Y-2.36
X7.9069Y-2.36
X4.21Y-1.76
X4.3084Y-1.76
X4.4069Y-1.76
X6.82Y-1.77
X6.9184Y-1.77
X7.0169Y-1.77
X5.09Y-1.76
X5.1884Y-1.76
X5.2869Y-1.76
X5.97Y-1.76
X6.0684Y-1.76
X6.1669Y-1.76
X5.0416Y-2.96
X5.14Y-2.96
X5.2384Y-2.96
X7.7116Y-1.79
X7.81Y-1.79
X7.9084Y-1.79
X7.7023Y-3.632
X7.8007Y-3.632
X7.8991Y-3.632
X6.83Y-2.36
X6.9284Y-2.36
X7.0269Y-2.36
X6.8071Y-3.6142
X6.9055Y-3.6142
X7.0039Y-3.6142
X4.21Y-2.96
X4.3084Y-2.96
X4.4069Y-2.96
X5.95Y-2.97
X6.0484Y-2.97
X6.1469Y-2.97
X5.0416Y-2.36
X5.14Y-2.36
X5.2384Y-2.36
X5.9449Y-3.6063
X6.0433Y-3.6063
X6.1417Y-3.6063
X5.94Y-2.36
X6.0384Y-2.36
X6.1369Y-2.36
X4.2116Y-2.36
X4.31Y-2.36
X4.4084Y-2.36
X6.82Y-2.97
X6.9184Y-2.97
X7.0169Y-2.97
X7.7031Y-2.97
X7.8016Y-2.97
X7.9Y-2.97
T3
X5.13Y-4.39
X5.13Y-4.49
X5.23Y-4.39
X5.23Y-4.49
X5.33Y-4.39
X5.33Y-4.49
X5.43Y-4.39
X5.43Y-4.49
X5.53Y-4.39
X5.53Y-4.49
X5.63Y-4.39
X5.63Y-4.49
X5.73Y-4.39
X5.73Y-4.49
X5.83Y-4.39
X5.83Y-4.49
X5.93Y-4.39
X5.93Y-4.49
X6.03Y-4.39
X6.03Y-4.49
X6.13Y-4.39
X6.13Y-4.49
X6.23Y-4.39
X6.23Y-4.49
X6.33Y-4.39
X6.33Y-4.49
X6.43Y-4.39
X6.43Y-4.49
X6.53Y-4.39
X6.53Y-4.49
X6.63Y-4.39
X6.63Y-4.49
X6.73Y-4.39
X6.73Y-4.49
X6.83Y-4.39
X6.83Y-4.49
X6.93Y-4.39
X6.93Y-4.49
X7.03Y-4.39
X7.03Y-4.49
T0
M30
